RobotoA2-XOPQ2.ufo
<glyph name="exclam" format="2">
  <advance width="620"/>
  <unicode hex="0021"/>
  <outline>
    <contour>
      <point x="285" y="15" type="qcurve" smooth="yes"/>
      <point x="285" y="25"/>
      <point x="297" y="39"/>
      <point x="310" y="39" type="qcurve" smooth="yes"/>
      <point x="323" y="39"/>
      <point x="335" y="25"/>
      <point x="335" y="15" type="qcurve" smooth="yes"/>
      <point x="335" y="5"/>
      <point x="323" y="-9"/>
      <point x="310" y="-9" type="qcurve" smooth="yes"/>
      <point x="297" y="-9"/>
      <point x="285" y="5"/>
    </contour>
    <contour>
      <point x="228" y="410" type="line"/>
      <point x="308" y="1456" type="line"/>
      <point x="312" y="1456" type="line"/>
      <point x="392" y="410" type="line"/>
    </contour>
  </outline>
</glyph>
<glyph name="quotedbl" format="2">
  <advance width="760"/>
  <unicode hex="0022"/>
  <outline>
    <contour>
      <point x="115" y="966" type="line"/>
      <point x="188" y="1320" type="line"/>
      <point x="188" y="1456" type="line"/>
      <point x="192" y="1456" type="line"/>
      <point x="192" y="1320" type="line"/>
      <point x="265" y="966" type="line"/>
    </contour>
    <contour>
      <point x="495" y="966" type="line"/>
      <point x="568" y="1320" type="line"/>
      <point x="568" y="1456" type="line"/>
      <point x="572" y="1456" type="line"/>
      <point x="572" y="1320" type="line"/>
      <point x="645" y="966" type="line"/>
    </contour>
  </outline>
</glyph>
<glyph name="dollar" format="2">
  <advance width="658"/>
  <unicode hex="0024"/>
  <outline>
    <contour>
      <point x="36" y="381" type="qcurve" smooth="yes"/>
      <point x="36" y="392" type="line"/>
      <point x="40" y="392" type="line"/>
      <point x="40" y="381" type="line" smooth="yes"/>
      <point x="40" y="261"/>
      <point x="205" y="143"/>
      <point x="353" y="143" type="qcurve" smooth="yes"/>
      <point x="500" y="143"/>
      <point x="658" y="265"/>
      <point x="658" y="365" type="qcurve" smooth="yes"/>
      <point x="658" y="455"/>
      <point x="453" y="620"/>
      <point x="316" y="682" type="qcurve" smooth="yes"/>
      <point x="180" y="743"/>
      <point x="62" y="946"/>
      <point x="62" y="1099" type="qcurve" smooth="yes"/>
      <point x="62" y="1254"/>
      <point x="212" y="1458"/>
      <point x="344" y="1458" type="qcurve" smooth="yes"/>
      <point x="478" y="1458"/>
      <point x="634" y="1235"/>
      <point x="634" y="1076" type="qcurve" smooth="yes"/>
      <point x="634" y="1065" type="line"/>
      <point x="630" y="1065" type="line"/>
      <point x="630" y="1076" type="line" smooth="yes"/>
      <point x="630" y="1181"/>
      <point x="486" y="1308"/>
      <point x="343" y="1308" type="qcurve" smooth="yes"/>
      <point x="201" y="1308"/>
      <point x="66" y="1199"/>
      <point x="66" y="1099" type="qcurve" smooth="yes"/>
      <point x="66" y="1018"/>
      <point x="269" y="864"/>
      <point x="410" y="800" type="qcurve" smooth="yes"/>
      <point x="547" y="738"/>
      <point x="662" y="527"/>
      <point x="662" y="365" type="qcurve" smooth="yes"/>
      <point x="662" y="202"/>
      <point x="495" y="-6"/>
      <point x="352" y="-6" type="qcurve" smooth="yes"/>
      <point x="210" y="-6"/>
      <point x="36" y="202"/>
    </contour>
    <contour>
      <point x="278" y="-170" type="line"/>
      <point x="278" y="758" type="line"/>
      <point x="414" y="758" type="line"/>
      <point x="414" y="80" type="line"/>
      <point x="428" y="70" type="line"/>
      <point x="428" y="-170" type="line"/>
    </contour>
    <contour>
      <point x="292" y="758" type="line"/>
      <point x="292" y="1386" type="line"/>
      <point x="278" y="1396" type="line"/>
      <point x="278" y="1586" type="line"/>
      <point x="428" y="1586" type="line"/>
      <point x="428" y="758" type="line"/>
    </contour>
  </outline>
</glyph>
<glyph name="comma" format="2">
  <advance width="580"/>
  <unicode hex="002C"/>
  <outline>
    <contour>
      <point x="110" y="-218" type="line"/>
      <point x="163" y="-159"/>
      <point x="299" y="-20"/>
      <point x="298" y="70" type="qcurve" smooth="yes"/>
      <point x="298" y="220" type="line"/>
      <point x="302" y="220" type="line"/>
      <point x="302" y="70" type="line" smooth="yes"/>
      <point x="302" y="-40"/>
      <point x="294" y="-224"/>
      <point x="215" y="-291" type="qcurve"/>
    </contour>
  </outline>
</glyph>
<glyph name="zero" format="2">
  <advance width="776"/>
  <unicode hex="0030"/>
  <outline>
    <contour>
      <point x="110" y="460" type="qcurve" smooth="yes"/>
      <point x="110" y="996" type="line" smooth="yes"/>
      <point x="110" y="1216"/>
      <point x="258" y="1486"/>
      <point x="388" y="1486" type="qcurve" smooth="yes"/>
      <point x="518" y="1486"/>
      <point x="666" y="1216"/>
      <point x="666" y="996" type="qcurve" smooth="yes"/>
      <point x="666" y="460" type="line" smooth="yes"/>
      <point x="666" y="240"/>
      <point x="518" y="-30"/>
      <point x="388" y="-30" type="qcurve" smooth="yes"/>
      <point x="258" y="-30"/>
      <point x="110" y="240"/>
    </contour>
    <contour>
      <point x="114" y="450" type="line" smooth="yes"/>
      <point x="114" y="310"/>
      <point x="248" y="128"/>
      <point x="388" y="128" type="qcurve" smooth="yes"/>
      <point x="528" y="128"/>
      <point x="662" y="310"/>
      <point x="662" y="450" type="qcurve" smooth="yes"/>
      <point x="662" y="1006" type="line" smooth="yes"/>
      <point x="662" y="1146"/>
      <point x="528" y="1328"/>
      <point x="388" y="1328" type="qcurve" smooth="yes"/>
      <point x="248" y="1328"/>
      <point x="114" y="1146"/>
      <point x="114" y="1006" type="qcurve" smooth="yes"/>
    </contour>
  </outline>
</glyph>
<glyph name="four" format="2">
  <advance width="776"/>
  <unicode hex="0034"/>
  <outline>
    <contour>
      <point x="584" y="0" type="line"/>
      <point x="584" y="398" type="line"/>
      <point x="584" y="450" type="line"/>
      <point x="584" y="1133" type="line"/>
      <point x="572" y="1133" type="line"/>
      <point x="213" y="500" type="line"/>
      <point x="586" y="500" type="line"/>
      <point x="590" y="500" type="line"/>
      <point x="792" y="500" type="line"/>
      <point x="792" y="342" type="line"/>
      <point x="10" y="342" type="line"/>
      <point x="10" y="468" type="line"/>
      <point x="572" y="1456" type="line"/>
      <point x="588" y="1456" type="line"/>
      <point x="588" y="0" type="line"/>
    </contour>
  </outline>
</glyph>
<glyph name="five" format="2">
  <advance width="776"/>
  <unicode hex="0035"/>
  <outline>
    <contour>
      <point x="100" y="365" type="qcurve" smooth="yes"/>
      <point x="100" y="375" type="line"/>
      <point x="104" y="375" type="line"/>
      <point x="104" y="365" type="line" smooth="yes"/>
      <point x="104" y="255"/>
      <point x="260" y="128"/>
      <point x="390" y="128" type="qcurve" smooth="yes"/>
      <point x="520" y="128"/>
      <point x="686" y="305"/>
      <point x="686" y="465" type="qcurve" smooth="yes"/>
      <point x="686" y="625"/>
      <point x="520" y="793"/>
      <point x="402" y="793" type="qcurve" smooth="yes"/>
      <point x="320" y="793"/>
      <point x="192" y="740"/>
      <point x="137" y="691" type="qcurve"/>
      <point x="133" y="691" type="line"/>
      <point x="214" y="1456" type="line"/>
      <point x="628" y="1456" type="line"/>
      <point x="628" y="1286" type="line"/>
      <point x="200" y="1286" type="line"/>
      <point x="156" y="876" type="line"/>
      <point x="206" y="906"/>
      <point x="335" y="952"/>
      <point x="399" y="952" type="qcurve" smooth="yes"/>
      <point x="516" y="952"/>
      <point x="690" y="695"/>
      <point x="690" y="465" type="qcurve" smooth="yes"/>
      <point x="690" y="235"/>
      <point x="521" y="-30"/>
      <point x="391" y="-30" type="qcurve" smooth="yes"/>
      <point x="253" y="-30"/>
      <point x="100" y="195"/>
    </contour>
  </outline>
</glyph>
<glyph name="semicolon" format="2">
  <advance width="600"/>
  <unicode hex="003B"/>
  <outline>
    <contour>
      <point x="120" y="-218" type="line"/>
      <point x="168" y="-154"/>
      <point x="309" y="-20"/>
      <point x="308" y="70" type="qcurve" smooth="yes"/>
      <point x="308" y="220" type="line"/>
      <point x="312" y="220" type="line"/>
      <point x="312" y="70" type="line" smooth="yes"/>
      <point x="312" y="-40"/>
      <point x="304" y="-224"/>
      <point x="225" y="-291" type="qcurve"/>
    </contour>
    <contour>
      <point x="275" y="1044" type="qcurve" smooth="yes"/>
      <point x="275" y="1054"/>
      <point x="288" y="1068"/>
      <point x="300" y="1068" type="qcurve" smooth="yes"/>
      <point x="312" y="1068"/>
      <point x="325" y="1054"/>
      <point x="325" y="1044" type="qcurve" smooth="yes"/>
      <point x="325" y="1034"/>
      <point x="312" y="1019"/>
      <point x="300" y="1019" type="qcurve" smooth="yes"/>
      <point x="288" y="1019"/>
      <point x="275" y="1034"/>
    </contour>
  </outline>
</glyph>
<glyph name="less" format="2">
  <advance width="1024"/>
  <unicode hex="003C"/>
  <outline>
    <contour>
      <point x="918" y="221" type="line"/>
      <point x="100" y="600" type="line"/>
      <point x="100" y="684" type="line"/>
      <point x="918" y="1063" type="line"/>
      <point x="918" y="1059" type="line"/>
      <point x="190" y="721" type="line"/>
      <point x="918" y="414" type="line"/>
    </contour>
  </outline>
</glyph>
<glyph name="greater" format="2">
  <advance width="1024"/>
  <unicode hex="003E"/>
  <outline>
    <contour>
      <point x="106" y="281" type="line"/>
      <point x="106" y="285" type="line"/>
      <point x="834" y="623" type="line"/>
      <point x="106" y="930" type="line"/>
      <point x="106" y="1123" type="line"/>
      <point x="924" y="744" type="line"/>
      <point x="924" y="660" type="line"/>
    </contour>
  </outline>
</glyph>
<glyph name="question" format="2">
  <advance width="605"/>
  <unicode hex="003F"/>
  <outline>
    <contour>
      <point x="235" y="15" type="qcurve" smooth="yes"/>
      <point x="235" y="25"/>
      <point x="248" y="39"/>
      <point x="260" y="39" type="qcurve" smooth="yes"/>
      <point x="272" y="39"/>
      <point x="285" y="25"/>
      <point x="285" y="15" type="qcurve" smooth="yes"/>
      <point x="285" y="5"/>
      <point x="272" y="-9"/>
      <point x="260" y="-9" type="qcurve" smooth="yes"/>
      <point x="248" y="-9"/>
      <point x="235" y="5"/>
    </contour>
    <contour>
      <point x="60" y="1095" type="line"/>
      <point x="60" y="1115" type="line" smooth="yes"/>
      <point x="60" y="1280"/>
      <point x="181" y="1476"/>
      <point x="287" y="1476" type="qcurve" smooth="yes"/>
      <point x="392" y="1476"/>
      <point x="511" y="1270"/>
      <point x="511" y="1100" type="qcurve" smooth="yes"/>
      <point x="511" y="966"/>
      <point x="487" y="804"/>
      <point x="441" y="719" type="qcurve" smooth="yes"/>
      <point x="388" y="617"/>
      <point x="347" y="490"/>
      <point x="347" y="420" type="qcurve" smooth="yes"/>
      <point x="347" y="410" type="line"/>
      <point x="161" y="410" type="line"/>
      <point x="161" y="420" type="line" smooth="yes"/>
      <point x="161" y="545"/>
      <point x="225" y="689"/>
      <point x="321" y="783" type="qcurve" smooth="yes"/>
      <point x="403" y="864"/>
      <point x="507" y="1000"/>
      <point x="507" y="1100" type="qcurve" smooth="yes"/>
      <point x="507" y="1200"/>
      <point x="399" y="1314"/>
      <point x="289" y="1314" type="qcurve" smooth="yes"/>
      <point x="179" y="1314"/>
      <point x="64" y="1210"/>
      <point x="64" y="1115" type="qcurve" smooth="yes"/>
      <point x="64" y="1095" type="line"/>
    </contour>
  </outline>
</glyph>
<glyph name="at" format="2">
  <advance width="2110"/>
  <unicode hex="0040"/>
  <outline>
    <contour>
      <point x="721" y="436" type="qcurve" smooth="yes"/>
      <point x="721" y="732"/>
      <point x="1010" y="1052"/>
      <point x="1129" y="1052" type="qcurve" smooth="yes"/>
      <point x="1190" y="1052"/>
      <point x="1323" y="991"/>
      <point x="1372" y="946" type="qcurve"/>
      <point x="1381" y="946" type="line"/>
      <point x="1255" y="350" type="line" smooth="yes"/>
      <point x="1230" y="230"/>
      <point x="1340" y="136"/>
      <point x="1500" y="136" type="qcurve" smooth="yes"/>
      <point x="1640" y="136"/>
      <point x="1816" y="420"/>
      <point x="1816" y="650" type="qcurve" smooth="yes"/>
      <point x="1816" y="920"/>
      <point x="1440" y="1330"/>
      <point x="1100" y="1330" type="qcurve" smooth="yes"/>
      <point x="760" y="1330"/>
      <point x="300" y="820"/>
      <point x="300" y="460" type="qcurve" smooth="yes"/>
      <point x="300" y="100"/>
      <point x="700" y="-290"/>
      <point x="1000" y="-290" type="qcurve" smooth="yes"/>
      <point x="1140" y="-290"/>
      <point x="1334" y="-236"/>
      <point x="1400" y="-200" type="qcurve"/>
      <point x="1400" y="-356" type="line"/>
      <point x="1330" y="-400"/>
      <point x="1140" y="-446"/>
      <point x="1000" y="-446" type="qcurve" smooth="yes"/>
      <point x="640" y="-446"/>
      <point x="114" y="40"/>
      <point x="114" y="460" type="qcurve" smooth="yes"/>
      <point x="114" y="880"/>
      <point x="700" y="1486"/>
      <point x="1100" y="1486" type="qcurve" smooth="yes"/>
      <point x="1500" y="1486"/>
      <point x="1996" y="1000"/>
      <point x="1996" y="650" type="qcurve" smooth="yes"/>
      <point x="1996" y="360"/>
      <point x="1720" y="0"/>
      <point x="1520" y="0" type="qcurve" smooth="yes"/>
      <point x="1366" y="0"/>
      <point x="1238" y="130"/>
      <point x="1235" y="271" type="qcurve"/>
      <point x="1179" y="136"/>
      <point x="1000" y="0"/>
      <point x="910" y="0" type="qcurve" smooth="yes"/>
      <point x="828" y="0"/>
      <point x="721" y="187"/>
    </contour>
    <contour>
      <point x="725" y="436" type="qcurve" smooth="yes"/>
      <point x="725" y="272"/>
      <point x="880" y="156"/>
      <point x="1000" y="156" type="qcurve" smooth="yes"/>
      <point x="1111" y="156"/>
      <point x="1230" y="252"/>
      <point x="1259" y="389" type="qcurve" smooth="yes"/>
      <point x="1351" y="823" type="line"/>
      <point x="1304" y="867"/>
      <point x="1200" y="912"/>
      <point x="1130" y="912" type="qcurve" smooth="yes"/>
      <point x="989" y="912"/>
      <point x="725" y="620"/>
    </contour>
  </outline>
</glyph>
<glyph name="C" format="2">
  <advance width="982"/>
  <unicode hex="0043"/>
  <anchor x="521" y="0" name="bottom"/>
  <anchor x="531" y="1456" name="top"/>
  <outline>
    <contour>
      <point x="115" y="682" type="qcurve" smooth="yes"/>
      <point x="115" y="774" type="line" smooth="yes"/>
      <point x="115" y="1110"/>
      <point x="348" y="1486"/>
      <point x="524" y="1486" type="qcurve" smooth="yes"/>
      <point x="698" y="1486"/>
      <point x="898" y="1201"/>
      <point x="898" y="1000" type="qcurve" smooth="yes"/>
      <point x="898" y="990" type="line"/>
      <point x="894" y="990" type="line"/>
      <point x="894" y="1000" type="line" smooth="yes"/>
      <point x="894" y="1139"/>
      <point x="714" y="1322"/>
      <point x="531" y="1322" type="qcurve" smooth="yes"/>
      <point x="352" y="1322"/>
      <point x="120" y="1052"/>
      <point x="120" y="774" type="qcurve" smooth="yes"/>
      <point x="120" y="682" type="line" smooth="yes"/>
      <point x="120" y="426"/>
      <point x="351" y="134"/>
      <point x="531" y="134" type="qcurve" smooth="yes"/>
      <point x="703" y="134"/>
      <point x="882" y="346"/>
      <point x="893" y="456" type="qcurve"/>
      <point x="894" y="466" type="line"/>
      <point x="898" y="466" type="line"/>
      <point x="897" y="456" type="line" smooth="yes"/>
      <point x="877" y="257"/>
      <point x="698" y="-30"/>
      <point x="524" y="-30" type="qcurve" smooth="yes"/>
      <point x="348" y="-30"/>
      <point x="115" y="346"/>
    </contour>
  </outline>
</glyph>
<glyph name="E" format="2">
  <advance width="974"/>
  <unicode hex="0045"/>
  <anchor x="490" y="0" name="bottom"/>
  <anchor x="904" y="0" name="ogonek"/>
  <anchor x="490" y="1456" name="top"/>
  <anchor x="-75" y="1074" name="tonos"/>
  <outline>
    <contour>
      <point x="170" y="0" type="line"/>
      <point x="170" y="1456" type="line"/>
      <point x="896" y="1456" type="line"/>
      <point x="896" y="1298" type="line"/>
      <point x="174" y="1298" type="line"/>
      <point x="174" y="158" type="line"/>
      <point x="906" y="158" type="line"/>
      <point x="906" y="0" type="line"/>
    </contour>
    <contour>
      <point x="172" y="672" type="line"/>
      <point x="172" y="830" type="line"/>
      <point x="804" y="830" type="line"/>
      <point x="804" y="672" type="line"/>
    </contour>
  </outline>
</glyph>
<glyph name="N" format="2">
  <advance width="1092"/>
  <unicode hex="004E"/>
  <anchor x="730" y="0" name="bottom"/>
  <anchor x="730" y="1456" name="top"/>
  <anchor x="1197" y="0" name="engtail"/>
  <outline>
    <contour>
      <point x="170" y="0" type="line"/>
      <point x="170" y="1456" type="line"/>
      <point x="186" y="1456" type="line"/>
      <point x="845" y="436" type="line" smooth="yes"/>
      <point x="865" y="406"/>
      <point x="900" y="346"/>
      <point x="912" y="321" type="qcurve"/>
      <point x="920" y="321" type="line"/>
      <point x="919" y="351"/>
      <point x="918" y="426"/>
      <point x="918" y="456" type="qcurve" smooth="yes"/>
      <point x="918" y="1456" type="line"/>
      <point x="922" y="1456" type="line"/>
      <point x="922" y="0" type="line"/>
      <point x="906" y="0" type="line"/>
      <point x="247" y="1020" type="line" smooth="yes"/>
      <point x="227" y="1050"/>
      <point x="193" y="1110"/>
      <point x="179" y="1135" type="qcurve"/>
      <point x="172" y="1135" type="line"/>
      <point x="173" y="1105"/>
      <point x="174" y="1030"/>
      <point x="174" y="1000" type="qcurve" smooth="yes"/>
      <point x="174" y="0" type="line"/>
    </contour>
  </outline>
</glyph>
<glyph name="U" format="2">
  <advance width="1176"/>
  <unicode hex="0055"/>
  <anchor x="494" y="0" name="bottom"/>
  <anchor x="691" y="0" name="ogonek"/>
  <anchor x="494" y="1456" name="top"/>
  <anchor x="929" y="1456" name="topright"/>
  <outline>
    <contour>
      <point x="155" y="470" type="qcurve" smooth="yes"/>
      <point x="155" y="1456" type="line"/>
      <point x="159" y="1456" type="line"/>
      <point x="159" y="470" type="line" smooth="yes"/>
      <point x="159" y="300"/>
      <point x="344" y="134"/>
      <point x="494" y="134" type="qcurve" smooth="yes"/>
      <point x="644" y="134"/>
      <point x="829" y="300"/>
      <point x="829" y="470" type="qcurve" smooth="yes"/>
      <point x="829" y="1456" type="line"/>
      <point x="1021" y="1456" type="line"/>
      <point x="1021" y="470" type="line" smooth="yes"/>
      <point x="1021" y="220"/>
      <point x="769" y="-30"/>
      <point x="588" y="-30" type="qcurve" smooth="yes"/>
      <point x="407" y="-30"/>
      <point x="155" y="220"/>
    </contour>
  </outline>
</glyph>
<glyph name="V" format="2">
  <advance width="1240"/>
  <unicode hex="0056"/>
  <anchor x="610" y="0" name="bottom"/>
  <anchor x="610" y="1456" name="top"/>
  <outline>
    <contour>
      <point x="0" y="1456" type="line"/>
      <point x="4" y="1456" type="line"/>
      <point x="509" y="107" type="line" smooth="yes"/>
      <point x="520" y="77"/>
      <point x="528" y="54"/>
      <point x="533" y="40" type="qcurve"/>
      <point x="539" y="40" type="line"/>
      <point x="546" y="66"/>
      <point x="559" y="110"/>
      <point x="571" y="142" type="qcurve" smooth="yes"/>
      <point x="1044" y="1456" type="line"/>
      <point x="1240" y="1456" type="line"/>
      <point x="696" y="-10" type="line"/>
      <point x="546" y="-10" type="line"/>
    </contour>
  </outline>
</glyph>
<glyph name="W" format="2">
  <advance width="1642"/>
  <unicode hex="0057"/>
  <anchor x="806" y="0" name="bottom"/>
  <anchor x="806" y="1456" name="top"/>
  <outline>
    <contour>
      <point x="408" y="-10" type="line"/>
      <point x="50" y="1456" type="line"/>
      <point x="54" y="1456" type="line"/>
      <point x="355" y="224" type="line" smooth="yes"/>
      <point x="363" y="191"/>
      <point x="375" y="144"/>
      <point x="381" y="118" type="qcurve"/>
      <point x="390" y="118" type="line"/>
      <point x="390" y="142"/>
      <point x="395" y="192"/>
      <point x="403" y="226" type="qcurve" smooth="yes"/>
      <point x="710" y="1456" type="line"/>
      <point x="834" y="1456" type="line"/>
      <point x="1102" y="225" type="line" smooth="yes"/>
      <point x="1109" y="191"/>
      <point x="1119" y="150"/>
      <point x="1126" y="117" type="qcurve"/>
      <point x="1135" y="117" type="line"/>
      <point x="1139" y="150"/>
      <point x="1144" y="191"/>
      <point x="1151" y="225" type="qcurve" smooth="yes"/>
      <point x="1402" y="1456" type="line"/>
      <point x="1592" y="1456" type="line"/>
      <point x="1234" y="-10" type="line"/>
      <point x="1147" y="-10" type="line"/>
      <point x="885" y="1192" type="line" smooth="yes"/>
      <point x="878" y="1226"/>
      <point x="866" y="1287"/>
      <point x="860" y="1320" type="qcurve"/>
      <point x="836" y="1320" type="line"/>
      <point x="831" y="1287"/>
      <point x="816" y="1226"/>
      <point x="807" y="1192" type="qcurve" smooth="yes"/>
      <point x="494" y="-10" type="line"/>
    </contour>
  </outline>
</glyph>
<glyph name="X" format="2">
  <advance width="1222"/>
  <unicode hex="0058"/>
  <anchor x="611" y="0" name="bottom"/>
  <anchor x="611" y="1456" name="top"/>
  <anchor x="997" y="0" name="cy_descender"/>
  <outline>
    <contour>
      <point x="24" y="0" type="line"/>
      <point x="559" y="813" type="line"/>
      <point x="559" y="813" type="line"/>
      <point x="960" y="1456" type="line"/>
      <point x="1172" y="1456" type="line"/>
      <point x="658" y="658" type="line"/>
      <point x="658" y="658" type="line"/>
      <point x="236" y="0" type="line"/>
    </contour>
    <contour>
      <point x="148" y="1456" type="line"/>
      <point x="153" y="1456" type="line"/>
      <point x="565" y="806" type="line"/>
      <point x="565" y="806" type="line"/>
      <point x="1087" y="0" type="line"/>
      <point x="1082" y="0" type="line"/>
      <point x="648" y="670" type="line"/>
      <point x="648" y="670" type="line"/>
    </contour>
  </outline>
</glyph>
<glyph name="asciicircum" format="2">
  <advance width="1081"/>
  <unicode hex="005E"/>
  <outline>
    <contour>
      <point x="25" y="720" type="line"/>
      <point x="500" y="1456" type="line"/>
      <point x="581" y="1456" type="line"/>
      <point x="1056" y="720" type="line"/>
      <point x="856" y="720" type="line"/>
      <point x="447" y="1366" type="line"/>
      <point x="31" y="720" type="line"/>
    </contour>
  </outline>
</glyph>
<glyph name="a" format="2">
  <advance width="742"/>
  <unicode hex="0061"/>
  <anchor x="315" y="0" name="bottom"/>
  <anchor x="640" y="0" name="ogonek"/>
  <anchor x="385" y="1052" name="top"/>
  <outline>
    <contour>
      <point x="316" y="-20" type="qcurve" smooth="yes"/>
      <point x="213" y="-20"/>
      <point x="90" y="150"/>
      <point x="90" y="314" type="qcurve" smooth="yes"/>
      <point x="90" y="470"/>
      <point x="250" y="648"/>
      <point x="373" y="648" type="qcurve" smooth="yes"/>
      <point x="598" y="648" type="line"/>
      <point x="598" y="516" type="line"/>
      <point x="378" y="516" type="line" smooth="yes"/>
      <point x="238" y="516"/>
      <point x="94" y="410"/>
      <point x="94" y="314" type="qcurve" smooth="yes"/>
      <point x="94" y="230"/>
      <point x="198" y="128"/>
      <point x="308" y="128" type="qcurve" smooth="yes"/>
      <point x="418" y="128"/>
      <point x="596" y="280"/>
      <point x="596" y="365" type="qcurve"/>
      <point x="596" y="720" type="line" smooth="yes"/>
      <point x="595" y="815"/>
      <point x="498" y="934"/>
      <point x="378" y="934" type="qcurve" smooth="yes"/>
      <point x="258" y="934"/>
      <point x="155" y="835"/>
      <point x="155" y="770" type="qcurve" smooth="yes"/>
      <point x="155" y="765" type="line"/>
      <point x="151" y="765" type="line"/>
      <point x="151" y="770" type="line" smooth="yes"/>
      <point x="151" y="895"/>
      <point x="275" y="1082"/>
      <point x="379" y="1082" type="qcurve" smooth="yes"/>
      <point x="484" y="1082"/>
      <point x="600" y="900"/>
      <point x="600" y="720" type="qcurve" smooth="yes"/>
      <point x="600" y="240" type="line" smooth="yes"/>
      <point x="600" y="142"/>
      <point x="625" y="30"/>
      <point x="638" y="6" type="qcurve"/>
      <point x="638" y="0" type="line"/>
      <point x="636" y="0" type="line"/>
      <point x="623" y="25"/>
      <point x="603" y="105"/>
      <point x="600" y="145" type="qcurve"/>
      <point x="563" y="80"/>
      <point x="398" y="-20"/>
    </contour>
  </outline>
</glyph>
<glyph name="b" format="2">
  <advance width="802"/>
  <unicode hex="0062"/>
  <anchor x="426" y="0" name="bottom"/>
  <anchor x="403" y="1536" name="top"/>
  <outline>
    <contour>
      <point x="148" y="0" type="line"/>
      <point x="148" y="1536" type="line"/>
      <point x="152" y="1536" type="line"/>
      <point x="152" y="137" type="line"/>
      <point x="152" y="137" type="line"/>
      <point x="152" y="0" type="line"/>
    </contour>
    <contour>
      <point x="443" y="132" type="qcurve" smooth="yes"/>
      <point x="583" y="132"/>
      <point x="713" y="350"/>
      <point x="713" y="510" type="qcurve" smooth="yes"/>
      <point x="713" y="542" type="line" smooth="yes"/>
      <point x="713" y="702"/>
      <point x="583" y="920"/>
      <point x="443" y="920" type="qcurve" smooth="yes"/>
      <point x="312" y="920"/>
      <point x="151" y="728"/>
      <point x="151" y="579" type="qcurve" smooth="yes"/>
      <point x="151" y="492" type="line" smooth="yes"/>
      <point x="151" y="319"/>
      <point x="317" y="132"/>
    </contour>
    <contour>
      <point x="426" y="-20" type="qcurve" smooth="yes"/>
      <point x="300" y="-20"/>
      <point x="150" y="236"/>
      <point x="150" y="491" type="qcurve" smooth="yes"/>
      <point x="150" y="584" type="line" smooth="yes"/>
      <point x="150" y="804"/>
      <point x="290" y="1072"/>
      <point x="426" y="1072" type="qcurve" smooth="yes"/>
      <point x="559" y="1072"/>
      <point x="717" y="772"/>
      <point x="717" y="542" type="qcurve" smooth="yes"/>
      <point x="717" y="510" type="line" smooth="yes"/>
      <point x="717" y="280"/>
      <point x="559" y="-20"/>
    </contour>
  </outline>
</glyph>
<glyph name="f" format="2">
  <advance width="418"/>
  <unicode hex="0066"/>
  <anchor x="118" y="0" name="bottom"/>
  <anchor x="118" y="1536" name="top"/>
  <outline>
    <contour>
      <point x="196" y="0" type="line"/>
      <point x="196" y="1200" type="line" smooth="yes"/>
      <point x="196" y="1374"/>
      <point x="300" y="1556"/>
      <point x="368" y="1556" type="qcurve" smooth="yes"/>
      <point x="401" y="1556"/>
      <point x="466" y="1548"/>
      <point x="496" y="1540" type="qcurve"/>
      <point x="486" y="1390" type="line"/>
      <point x="464" y="1394"/>
      <point x="414" y="1400"/>
      <point x="388" y="1400" type="qcurve" smooth="yes"/>
      <point x="298" y="1400"/>
      <point x="200" y="1300"/>
      <point x="200" y="1200" type="qcurve" smooth="yes"/>
      <point x="200" y="992" type="line"/>
      <point x="200" y="970" type="line"/>
      <point x="200" y="0" type="line"/>
    </contour>
    <contour>
      <point x="25" y="910" type="line"/>
      <point x="25" y="1052" type="line"/>
      <point x="197" y="1052" type="line"/>
      <point x="199" y="1052" type="line"/>
      <point x="428" y="1052" type="line"/>
      <point x="428" y="910" type="line"/>
    </contour>
  </outline>
</glyph>
<glyph name="h" format="2">
  <advance width="774"/>
  <unicode hex="0068"/>
  <anchor x="387" y="0" name="bottom"/>
  <anchor x="373" y="1327" name="center"/>
  <anchor x="62" y="1536" name="top"/>
  <anchor x="634" y="0" name="engtail"/>
  <outline>
    <contour>
      <point x="152" y="0" type="line"/>
      <point x="148" y="0" type="line"/>
      <point x="148" y="1536" type="line"/>
      <point x="152" y="1536" type="line"/>
    </contour>
    <contour>
      <point x="150" y="892" type="line"/>
      <point x="194" y="988"/>
      <point x="332" y="1072"/>
      <point x="416" y="1072" type="qcurve" smooth="yes"/>
      <point x="512" y="1072"/>
      <point x="636" y="911"/>
      <point x="636" y="699" type="qcurve" smooth="yes"/>
      <point x="636" y="0" type="line"/>
      <point x="632" y="0" type="line"/>
      <point x="632" y="701" type="line" smooth="yes"/>
      <point x="632" y="827"/>
      <point x="535" y="916"/>
      <point x="445" y="916" type="qcurve" smooth="yes"/>
      <point x="353" y="916"/>
      <point x="215" y="849"/>
      <point x="150" y="760" type="qcurve"/>
    </contour>
  </outline>
</glyph>
<glyph name="l" format="2">
  <advance width="316"/>
  <unicode hex="006C"/>
  <anchor x="158" y="0" name="bottom"/>
  <anchor x="158" y="791" name="center"/>
  <anchor x="158" y="1536" name="top"/>
  <anchor x="351" y="1052" name="topright"/>
  <anchor x="158" y="542" name="yu_dash"/>
  <outline>
    <contour>
      <point x="156" y="0" type="line"/>
      <point x="156" y="1536" type="line"/>
      <point x="160" y="1536" type="line"/>
      <point x="160" y="0" type="line"/>
    </contour>
  </outline>
</glyph>
<glyph name="n" format="2">
  <advance width="774"/>
  <unicode hex="006E"/>
  <anchor x="387" y="0" name="bottom"/>
  <anchor x="387" y="1052" name="top"/>
  <anchor x="636" y="0" name="engtail"/>
  <outline>
    <contour>
      <point x="148" y="0" type="line"/>
      <point x="148" y="1052" type="line"/>
      <point x="152" y="1052" type="line"/>
      <point x="152" y="744" type="line"/>
      <point x="152" y="0" type="line"/>
    </contour>
    <contour>
      <point x="150" y="743" type="qcurve"/>
      <point x="150" y="928" type="line"/>
      <point x="165" y="972"/>
      <point x="296" y="1072"/>
      <point x="383" y="1072" type="qcurve" smooth="yes"/>
      <point x="498" y="1072"/>
      <point x="636" y="891"/>
      <point x="636" y="679" type="qcurve" smooth="yes"/>
      <point x="636" y="0" type="line"/>
      <point x="632" y="0" type="line"/>
      <point x="632" y="681" type="line" smooth="yes"/>
      <point x="632" y="807"/>
      <point x="519" y="916"/>
      <point x="415" y="916" type="qcurve" smooth="yes"/>
      <point x="324" y="916"/>
      <point x="169" y="807"/>
    </contour>
  </outline>
</glyph>
<glyph name="q" format="2">
  <advance width="802"/>
  <unicode hex="0071"/>
  <anchor x="399" y="0" name="bottom"/>
  <anchor x="399" y="1052" name="top"/>
  <outline>
    <contour>
      <point x="650" y="-416" type="line"/>
      <point x="650" y="628" type="line"/>
      <point x="650" y="628" type="line"/>
      <point x="650" y="1052" type="line"/>
      <point x="654" y="1052" type="line"/>
      <point x="654" y="-416" type="line"/>
    </contour>
    <contour>
      <point x="359" y="132" type="qcurve" smooth="yes"/>
      <point x="490" y="132"/>
      <point x="651" y="354"/>
      <point x="651" y="503" type="qcurve" smooth="yes"/>
      <point x="651" y="531" type="line" smooth="yes"/>
      <point x="651" y="704"/>
      <point x="486" y="920"/>
      <point x="359" y="920" type="qcurve" smooth="yes"/>
      <point x="220" y="920"/>
      <point x="89" y="702"/>
      <point x="89" y="542" type="qcurve" smooth="yes"/>
      <point x="89" y="510" type="line" smooth="yes"/>
      <point x="89" y="350"/>
      <point x="220" y="132"/>
    </contour>
    <contour>
      <point x="375" y="-20" type="qcurve" smooth="yes"/>
      <point x="244" y="-20"/>
      <point x="85" y="280"/>
      <point x="85" y="510" type="qcurve" smooth="yes"/>
      <point x="85" y="542" type="line" smooth="yes"/>
      <point x="85" y="772"/>
      <point x="244" y="1072"/>
      <point x="375" y="1072" type="qcurve" smooth="yes"/>
      <point x="508" y="1072"/>
      <point x="653" y="769"/>
      <point x="653" y="531" type="qcurve" smooth="yes"/>
      <point x="653" y="505" type="line" smooth="yes"/>
      <point x="653" y="282"/>
      <point x="508" y="-20"/>
    </contour>
  </outline>
</glyph>
<glyph name="s" format="2">
  <advance width="661"/>
  <unicode hex="0073"/>
  <anchor x="325" y="0" name="bottom"/>
  <anchor x="325" y="1052" name="top"/>
  <outline>
    <contour>
      <point x="80" y="310" type="line"/>
      <point x="86" y="310" type="line"/>
      <point x="86" y="305" type="line" smooth="yes"/>
      <point x="86" y="214"/>
      <point x="220" y="122"/>
      <point x="330" y="122" type="qcurve" smooth="yes"/>
      <point x="440" y="122"/>
      <point x="567" y="210"/>
      <point x="567" y="306" type="qcurve" smooth="yes"/>
      <point x="567" y="379"/>
      <point x="485" y="509"/>
      <point x="335" y="545" type="qcurve" smooth="yes"/>
      <point x="176" y="583"/>
      <point x="95" y="705"/>
      <point x="95" y="783" type="qcurve" smooth="yes"/>
      <point x="95" y="910"/>
      <point x="214" y="1082"/>
      <point x="320" y="1082" type="qcurve" smooth="yes"/>
      <point x="426" y="1082"/>
      <point x="539" y="911"/>
      <point x="539" y="765" type="qcurve" smooth="yes"/>
      <point x="539" y="760" type="line"/>
      <point x="535" y="760" type="line"/>
      <point x="535" y="769" type="line" smooth="yes"/>
      <point x="535" y="844"/>
      <point x="430" y="930"/>
      <point x="320" y="930" type="qcurve" smooth="yes"/>
      <point x="210" y="930"/>
      <point x="109" y="853"/>
      <point x="109" y="782" type="qcurve" smooth="yes"/>
      <point x="109" y="712"/>
      <point x="185" y="585"/>
      <point x="336" y="549" type="qcurve" smooth="yes"/>
      <point x="490" y="512"/>
      <point x="581" y="382"/>
      <point x="581" y="280" type="qcurve" smooth="yes"/>
      <point x="581" y="150"/>
      <point x="465" y="-30"/>
      <point x="330" y="-30" type="qcurve" smooth="yes"/>
      <point x="195" y="-30"/>
      <point x="80" y="143"/>
      <point x="80" y="305" type="qcurve" smooth="yes"/>
    </contour>
  </outline>
</glyph>
<glyph name="u" format="2">
  <advance width="774"/>
  <unicode hex="0075"/>
  <anchor x="376" y="0" name="bottom"/>
  <anchor x="626" y="0" name="ogonek"/>
  <anchor x="376" y="1052" name="top"/>
  <anchor x="625" y="1052" name="topright"/>
  <anchor x="624" y="0" name="cy_descender"/>
  <outline>
    <contour>
      <point x="377" y="-20" type="qcurve" smooth="yes"/>
      <point x="282" y="-20"/>
      <point x="138" y="161"/>
      <point x="138" y="373" type="qcurve" smooth="yes"/>
      <point x="138" y="1052" type="line"/>
      <point x="142" y="1052" type="line"/>
      <point x="142" y="371" type="line" smooth="yes"/>
      <point x="142" y="245"/>
      <point x="237" y="136"/>
      <point x="325" y="136" type="qcurve" smooth="yes"/>
      <point x="400" y="136"/>
      <point x="518" y="190"/>
      <point x="624" y="296" type="qcurve"/>
      <point x="624" y="132" type="line"/>
      <point x="558" y="36"/>
      <point x="437" y="-20"/>
    </contour>
    <contour>
      <point x="622" y="0" type="line"/>
      <point x="622" y="304" type="line"/>
      <point x="622" y="1052" type="line"/>
      <point x="626" y="1052" type="line"/>
      <point x="626" y="0" type="line"/>
    </contour>
  </outline>
</glyph>
<glyph name="x" format="2">
  <advance width="978"/>
  <unicode hex="0078"/>
  <anchor x="489" y="0" name="bottom"/>
  <anchor x="489" y="1052" name="top"/>
  <anchor x="846" y="0" name="cy_descender"/>
  <outline>
    <contour>
      <point x="20" y="0" type="line"/>
      <point x="439" y="604" type="line"/>
      <point x="439" y="604" type="line"/>
      <point x="728" y="1052" type="line"/>
      <point x="938" y="1052" type="line"/>
      <point x="536" y="460" type="line"/>
      <point x="536" y="460" type="line"/>
      <point x="230" y="0" type="line"/>
    </contour>
    <contour>
      <point x="140" y="1052" type="line"/>
      <point x="144" y="1052" type="line"/>
      <point x="491" y="531" type="line"/>
      <point x="491" y="531" type="line"/>
      <point x="848" y="0" type="line"/>
      <point x="844" y="0" type="line"/>
      <point x="487" y="529" type="line"/>
      <point x="487" y="529" type="line"/>
    </contour>
  </outline>
</glyph>
<glyph name="braceleft" format="2">
  <advance width="519"/>
  <unicode hex="007B"/>
  <outline>
    <contour>
      <point x="489" y="-312" type="line"/>
      <point x="263" y="-312"/>
      <point x="190" y="-32"/>
      <point x="227" y="123" type="qcurve" smooth="yes"/>
      <point x="277" y="334" type="line" smooth="yes"/>
      <point x="302" y="441"/>
      <point x="176" y="508"/>
      <point x="64" y="508" type="qcurve"/>
      <point x="64" y="640" type="line"/>
      <point x="176" y="640"/>
      <point x="302" y="707"/>
      <point x="277" y="814" type="qcurve" smooth="yes"/>
      <point x="227" y="1025" type="line" smooth="yes"/>
      <point x="190" y="1180"/>
      <point x="263" y="1460"/>
      <point x="489" y="1460" type="qcurve"/>
      <point x="489" y="1314" type="line"/>
      <point x="341" y="1314"/>
      <point x="202" y="1146"/>
      <point x="231" y="1025" type="qcurve" smooth="yes"/>
      <point x="281" y="814" type="line" smooth="yes"/>
      <point x="301" y="730"/>
      <point x="229" y="600"/>
      <point x="131" y="574" type="qcurve"/>
      <point x="229" y="548"/>
      <point x="301" y="418"/>
      <point x="281" y="334" type="qcurve" smooth="yes"/>
      <point x="231" y="123" type="line" smooth="yes"/>
      <point x="202" y="2"/>
      <point x="341" y="-166"/>
      <point x="489" y="-166" type="qcurve"/>
    </contour>
  </outline>
</glyph>
<glyph name="currency" format="2">
  <advance width="1032"/>
  <unicode hex="00A4"/>
  <guideline y="901" identifier="bRYxxRaQQf"/>
  <guideline y="555" identifier="917FhrihjR"/>
  <outline>
    <contour>
      <point x="198" y="713" type="qcurve"/>
      <point x="198" y="567"/>
      <point x="382" y="373"/>
      <point x="513" y="373" type="qcurve" smooth="yes"/>
      <point x="643" y="373"/>
      <point x="826" y="567"/>
      <point x="826" y="712" type="qcurve" smooth="yes"/>
      <point x="826" y="855"/>
      <point x="643" y="1049"/>
      <point x="513" y="1049" type="qcurve" smooth="yes"/>
      <point x="382" y="1049"/>
      <point x="198" y="855"/>
    </contour>
    <contour>
      <point x="194" y="714" type="qcurve"/>
      <point x="194" y="858"/>
      <point x="384" y="1053"/>
      <point x="513" y="1053" type="qcurve" smooth="yes"/>
      <point x="642" y="1053"/>
      <point x="830" y="858"/>
      <point x="830" y="713" type="qcurve" smooth="yes"/>
      <point x="830" y="568"/>
      <point x="642" y="369"/>
      <point x="513" y="369" type="qcurve" smooth="yes"/>
      <point x="384" y="369"/>
      <point x="194" y="568"/>
    </contour>
    <contour>
      <point x="989" y="1105" type="line"/>
      <point x="788" y="899" type="line"/>
      <point x="666" y="1026" type="line"/>
      <point x="867" y="1232" type="line"/>
    </contour>
    <contour>
      <point x="335" y="421" type="line"/>
      <point x="133" y="215" type="line"/>
      <point x="12" y="341" type="line"/>
      <point x="214" y="546" type="line"/>
    </contour>
    <contour>
      <point x="897" y="221" type="line"/>
      <point x="695" y="427" type="line"/>
      <point x="818" y="553" type="line"/>
      <point x="1020" y="348" type="line"/>
    </contour>
    <contour>
      <point x="244" y="907" type="line"/>
      <point x="42" y="1113" type="line"/>
      <point x="163" y="1239" type="line"/>
      <point x="365" y="1033" type="line"/>
    </contour>
  </outline>
</glyph>
<glyph name="section" format="2">
  <advance width="907"/>
  <unicode hex="00A7"/>
  <guideline y="1658" identifier="QzZ5gIiCyn"/>
  <guideline y="578" identifier="9Hxjf2sdFw"/>
  <outline>
    <contour>
      <point x="519" y="183" type="qcurve"/>
      <point x="519" y="252" type="line"/>
      <point x="629" y="252"/>
      <point x="782" y="376"/>
      <point x="782" y="463" type="qcurve"/>
      <point x="782" y="556"/>
      <point x="615" y="672"/>
      <point x="434" y="734" type="qcurve" smooth="yes"/>
      <point x="293" y="777"/>
      <point x="185" y="915"/>
      <point x="185" y="1139" type="qcurve"/>
      <point x="185" y="1305"/>
      <point x="324" y="1490"/>
      <point x="450" y="1491" type="qcurve" smooth="yes"/>
      <point x="569" y="1492"/>
      <point x="707" y="1294"/>
      <point x="706" y="1100" type="qcurve"/>
      <point x="702" y="1100" type="line"/>
      <point x="703" y="1200"/>
      <point x="572" y="1337"/>
      <point x="443" y="1337" type="qcurve" smooth="yes"/>
      <point x="311" y="1337"/>
      <point x="189" y="1239"/>
      <point x="189" y="1140" type="qcurve" smooth="yes"/>
      <point x="189" y="1049"/>
      <point x="312" y="961"/>
      <point x="512" y="897" type="qcurve" smooth="yes"/>
      <point x="630" y="859"/>
      <point x="786" y="687"/>
      <point x="786" y="462" type="qcurve" smooth="yes"/>
      <point x="786" y="365"/>
      <point x="627" y="183"/>
    </contour>
    <contour>
      <point x="365" y="844" type="qcurve"/>
      <point x="364" y="756" type="line"/>
      <point x="253" y="756"/>
      <point x="129" y="650"/>
      <point x="129" y="577" type="qcurve" smooth="yes"/>
      <point x="129" y="488"/>
      <point x="275" y="387"/>
      <point x="464" y="317" type="qcurve" smooth="yes"/>
      <point x="597" y="265"/>
      <point x="717" y="86"/>
      <point x="717" y="-136" type="qcurve"/>
      <point x="717" y="-298"/>
      <point x="551" y="-509"/>
      <point x="424" y="-509" type="qcurve" smooth="yes"/>
      <point x="298" y="-509"/>
      <point x="119" y="-303"/>
      <point x="119" y="-72" type="qcurve"/>
      <point x="123" y="-70" type="line"/>
      <point x="123" y="-230"/>
      <point x="306" y="-355"/>
      <point x="427" y="-355" type="qcurve" smooth="yes"/>
      <point x="548" y="-355"/>
      <point x="712" y="-244"/>
      <point x="712" y="-136" type="qcurve" smooth="yes"/>
      <point x="712" y="-35"/>
      <point x="570" y="94"/>
      <point x="368" y="161" type="qcurve" smooth="yes"/>
      <point x="225" y="208"/>
      <point x="125" y="394"/>
      <point x="125" y="577" type="qcurve" smooth="yes"/>
      <point x="125" y="677"/>
      <point x="271" y="844"/>
    </contour>
  </outline>
</glyph>
<glyph name="copyright" format="2">
  <advance width="1654"/>
  <unicode hex="00A9"/>
  <guideline y="901" identifier="0Pjz0qKr8z"/>
  <guideline y="555" identifier="sJo8BlDiJ7"/>
  <outline>
    <contour>
      <point x="1129" y="546" type="qcurve"/>
      <point x="1133" y="546" type="line"/>
      <point x="1133" y="375"/>
      <point x="950" y="205"/>
      <point x="822" y="205" type="qcurve" smooth="yes"/>
      <point x="689" y="205"/>
      <point x="515" y="437"/>
      <point x="515" y="664" type="qcurve" smooth="yes"/>
      <point x="515" y="703" type="line" smooth="yes"/>
      <point x="515" y="931"/>
      <point x="690" y="1170"/>
      <point x="835" y="1170" type="qcurve" smooth="yes"/>
      <point x="982" y="1170"/>
      <point x="1134" y="983"/>
      <point x="1134" y="829" type="qcurve"/>
      <point x="1130" y="829" type="line"/>
      <point x="1130" y="917"/>
      <point x="979" y="1006"/>
      <point x="835" y="1006" type="qcurve" smooth="yes"/>
      <point x="679" y="1006"/>
      <point x="519" y="868"/>
      <point x="519" y="747" type="qcurve" smooth="yes"/>
      <point x="519" y="621" type="line" smooth="yes"/>
      <point x="519" y="499"/>
      <point x="692" y="362"/>
      <point x="848" y="362" type="qcurve" smooth="yes"/>
      <point x="992" y="362"/>
      <point x="1129" y="457"/>
    </contour>
    <contour>
      <point x="186" y="687" type="qcurve" smooth="yes"/>
      <point x="186" y="400"/>
      <point x="563" y="4"/>
      <point x="828" y="4" type="qcurve" smooth="yes"/>
      <point x="1092" y="4"/>
      <point x="1469" y="400"/>
      <point x="1469" y="687" type="qcurve" smooth="yes"/>
      <point x="1469" y="975"/>
      <point x="1092" y="1367"/>
      <point x="828" y="1367" type="qcurve" smooth="yes"/>
      <point x="563" y="1367"/>
      <point x="186" y="975"/>
    </contour>
    <contour>
      <point x="38" y="687" type="qcurve" smooth="yes"/>
      <point x="38" y="1039"/>
      <point x="501" y="1519"/>
      <point x="827" y="1519" type="qcurve" smooth="yes"/>
      <point x="1152" y="1519"/>
      <point x="1616" y="1039"/>
      <point x="1616" y="687" type="qcurve" smooth="yes"/>
      <point x="1616" y="337"/>
      <point x="1152" y="-147"/>
      <point x="827" y="-147" type="qcurve" smooth="yes"/>
      <point x="501" y="-147"/>
      <point x="38" y="337"/>
    </contour>
  </outline>
</glyph>
<glyph name="ordfeminine" format="2">
  <advance width="615"/>
  <unicode hex="00AA"/>
  <guideline y="1681" identifier="3CJlALCfkl"/>
  <guideline y="909" identifier="Zdl6NZVQAy"/>
  <outline>
    <contour>
      <point x="453" y="870" type="line" smooth="yes"/>
      <point x="453" y="821"/>
      <point x="464" y="748"/>
      <point x="479" y="706" type="qcurve"/>
      <point x="483" y="706" type="line"/>
      <point x="469" y="749"/>
      <point x="457" y="826"/>
      <point x="457" y="870" type="qcurve" smooth="yes"/>
      <point x="457" y="1201" type="line" smooth="yes"/>
      <point x="457" y="1348"/>
      <point x="384" y="1477"/>
      <point x="311" y="1477" type="qcurve" smooth="yes"/>
      <point x="238" y="1477"/>
      <point x="163" y="1366"/>
      <point x="163" y="1261" type="qcurve" smooth="yes"/>
      <point x="163" y="1234" type="line"/>
      <point x="167" y="1234" type="line"/>
      <point x="167" y="1247" type="line" smooth="yes"/>
      <point x="167" y="1292"/>
      <point x="242" y="1346"/>
      <point x="313" y="1346" type="qcurve" smooth="yes"/>
      <point x="380" y="1346"/>
      <point x="453" y="1276"/>
      <point x="453" y="1202" type="qcurve" smooth="yes"/>
    </contour>
    <contour>
      <point x="455" y="1149" type="line"/>
      <point x="320" y="1149" type="line" smooth="yes"/>
      <point x="230" y="1149"/>
      <point x="141" y="1028"/>
      <point x="141" y="920" type="qcurve" smooth="yes"/>
      <point x="141" y="816"/>
      <point x="209" y="692"/>
      <point x="272" y="692" type="qcurve" smooth="yes"/>
      <point x="319" y="692"/>
      <point x="441" y="767"/>
      <point x="459" y="792" type="qcurve"/>
      <point x="455" y="905" type="line"/>
      <point x="412" y="868"/>
      <point x="326" y="822"/>
      <point x="273" y="822" type="qcurve" smooth="yes"/>
      <point x="209" y="822"/>
      <point x="145" y="879"/>
      <point x="145" y="920" type="qcurve" smooth="yes"/>
      <point x="145" y="969"/>
      <point x="235" y="1042"/>
      <point x="325" y="1042" type="qcurve" smooth="yes"/>
      <point x="455" y="1042" type="line"/>
    </contour>
  </outline>
</glyph>
<glyph name="registered" format="2">
  <advance width="1654"/>
  <unicode hex="00AE"/>
  <outline>
    <contour>
      <point x="38" y="687" type="qcurve" smooth="yes"/>
      <point x="38" y="1039"/>
      <point x="501" y="1519"/>
      <point x="827" y="1519" type="qcurve" smooth="yes"/>
      <point x="1152" y="1519"/>
      <point x="1616" y="1039"/>
      <point x="1616" y="687" type="qcurve" smooth="yes"/>
      <point x="1616" y="337"/>
      <point x="1152" y="-147"/>
      <point x="827" y="-147" type="qcurve" smooth="yes"/>
      <point x="501" y="-147"/>
      <point x="38" y="337"/>
    </contour>
    <contour>
      <point x="186" y="687" type="qcurve" smooth="yes"/>
      <point x="186" y="400"/>
      <point x="563" y="4"/>
      <point x="828" y="4" type="qcurve" smooth="yes"/>
      <point x="1092" y="4"/>
      <point x="1469" y="400"/>
      <point x="1469" y="687" type="qcurve" smooth="yes"/>
      <point x="1469" y="975"/>
      <point x="1092" y="1367"/>
      <point x="828" y="1367" type="qcurve" smooth="yes"/>
      <point x="563" y="1367"/>
      <point x="186" y="975"/>
    </contour>
    <contour>
      <point x="579" y="225" type="line"/>
      <point x="579" y="1158" type="line"/>
      <point x="773" y="1158" type="line" smooth="yes"/>
      <point x="910" y="1158"/>
      <point x="1073" y="1018"/>
      <point x="1073" y="868" type="qcurve" smooth="yes"/>
      <point x="1073" y="764"/>
      <point x="937" y="597"/>
      <point x="824" y="597" type="qcurve" smooth="yes"/>
      <point x="581" y="597" type="line"/>
      <point x="581" y="738" type="line"/>
      <point x="900" y="738" type="line" smooth="yes"/>
      <point x="973" y="738"/>
      <point x="1069" y="795"/>
      <point x="1069" y="868" type="qcurve" smooth="yes"/>
      <point x="1069" y="940"/>
      <point x="993" y="1007"/>
      <point x="875" y="1007" type="qcurve" smooth="yes"/>
      <point x="583" y="1007" type="line"/>
      <point x="583" y="225" type="line"/>
    </contour>
    <contour>
      <point x="1122" y="225" type="line"/>
      <point x="883" y="672" type="line"/>
      <point x="888" y="673" type="line"/>
      <point x="906" y="636"/>
      <point x="950" y="554"/>
      <point x="965" y="526" type="qcurve" smooth="yes"/>
      <point x="1126" y="225" type="line"/>
      <point x="1126" y="225" type="line"/>
    </contour>
  </outline>
</glyph>
<glyph name="degree" format="2">
  <advance width="525"/>
  <unicode hex="00B0"/>
  <outline>
    <contour>
      <point x="130" y="1341" type="qcurve"/>
      <point x="130" y="1396"/>
      <point x="211" y="1477"/>
      <point x="265" y="1477" type="qcurve" smooth="yes"/>
      <point x="319" y="1477"/>
      <point x="396" y="1396"/>
      <point x="396" y="1341" type="qcurve" smooth="yes"/>
      <point x="396" y="1286"/>
      <point x="319" y="1209"/>
      <point x="265" y="1209" type="qcurve" smooth="yes"/>
      <point x="211" y="1209"/>
      <point x="130" y="1286"/>
    </contour>
    <contour>
      <point x="134" y="1341" type="qcurve"/>
      <point x="134" y="1286"/>
      <point x="213" y="1213"/>
      <point x="265" y="1213" type="qcurve" smooth="yes"/>
      <point x="317" y="1213"/>
      <point x="392" y="1286"/>
      <point x="392" y="1341" type="qcurve" smooth="yes"/>
      <point x="392" y="1396"/>
      <point x="318" y="1473"/>
      <point x="265" y="1473" type="qcurve" smooth="yes"/>
      <point x="212" y="1473"/>
      <point x="134" y="1396"/>
    </contour>
  </outline>
</glyph>
<glyph name="plusminus" format="2">
  <advance width="848"/>
  <unicode hex="00B1"/>
  <outline>
    <contour>
      <point x="57" y="611" type="line"/>
      <point x="57" y="775" type="line"/>
      <point x="791" y="775" type="line"/>
      <point x="791" y="611" type="line"/>
    </contour>
    <contour>
      <point x="422" y="248" type="line"/>
      <point x="422" y="1160" type="line"/>
      <point x="426" y="1160" type="line"/>
      <point x="426" y="248" type="line"/>
    </contour>
    <contour>
      <point x="57" y="1" type="line"/>
      <point x="57" y="165" type="line"/>
      <point x="791" y="165" type="line"/>
      <point x="791" y="1" type="line"/>
    </contour>
  </outline>
</glyph>
<glyph name="threesuperior" format="2">
  <advance width="434"/>
  <unicode hex="00B3"/>
  <outline>
    <contour>
      <point x="63" y="920" type="qcurve" smooth="yes"/>
      <point x="63" y="923" type="line"/>
      <point x="67" y="923" type="line"/>
      <point x="67" y="920" type="line" smooth="yes"/>
      <point x="67" y="875"/>
      <point x="147" y="824"/>
      <point x="213" y="824" type="qcurve" smooth="yes"/>
      <point x="282" y="824"/>
      <point x="346" y="876"/>
      <point x="346" y="921" type="qcurve" smooth="yes"/>
      <point x="346" y="978"/>
      <point x="270" y="1028"/>
      <point x="197" y="1029" type="qcurve" smooth="yes"/>
      <point x="113" y="1029" type="line"/>
      <point x="113" y="1151" type="line"/>
      <point x="197" y="1151" type="line" smooth="yes"/>
      <point x="269" y="1151"/>
      <point x="333" y="1207"/>
      <point x="333" y="1258" type="qcurve" smooth="yes"/>
      <point x="333" y="1299"/>
      <point x="279" y="1349"/>
      <point x="210" y="1349" type="qcurve" smooth="yes"/>
      <point x="153" y="1349"/>
      <point x="78" y="1299"/>
      <point x="78" y="1256" type="qcurve" smooth="yes"/>
      <point x="78" y="1252" type="line"/>
      <point x="74" y="1252" type="line"/>
      <point x="74" y="1256" type="line" smooth="yes"/>
      <point x="74" y="1357"/>
      <point x="151" y="1487"/>
      <point x="204" y="1487" type="qcurve" smooth="yes"/>
      <point x="263" y="1487"/>
      <point x="337" y="1372"/>
      <point x="337" y="1258" type="qcurve" smooth="yes"/>
      <point x="337" y="1212"/>
      <point x="299" y="1119"/>
      <point x="263" y="1098" type="qcurve"/>
      <point x="263" y="1097" type="line"/>
      <point x="311" y="1073"/>
      <point x="350" y="981"/>
      <point x="350" y="921" type="qcurve" smooth="yes"/>
      <point x="350" y="807"/>
      <point x="267" y="686"/>
      <point x="205" y="686" type="qcurve" smooth="yes"/>
      <point x="141" y="686"/>
      <point x="63" y="802"/>
    </contour>
  </outline>
</glyph>
<glyph name="onesuperior" format="2">
  <advance width="593"/>
  <unicode hex="00B9"/>
  <outline>
    <contour>
      <point x="123" y="1267" type="line"/>
      <point x="123" y="1426" type="line"/>
      <point x="299" y="1486" type="line"/>
      <point x="343" y="1486" type="line"/>
      <point x="343" y="697" type="line"/>
      <point x="339" y="697" type="line"/>
      <point x="339" y="1344" type="line"/>
    </contour>
  </outline>
</glyph>
<glyph name="questiondown" format="2">
  <advance width="968"/>
  <unicode hex="00BF"/>
  <guideline y="-181" identifier="apukwP5ffL"/>
  <guideline y="921" identifier="5ZPZZL8Rim"/>
  <outline>
    <contour>
      <point x="549" y="1146" type="qcurve" smooth="yes"/>
      <point x="549" y="1136"/>
      <point x="536" y="1122"/>
      <point x="524" y="1122" type="qcurve" smooth="yes"/>
      <point x="512" y="1122"/>
      <point x="499" y="1136"/>
      <point x="499" y="1146" type="qcurve" smooth="yes"/>
      <point x="499" y="1156"/>
      <point x="512" y="1170"/>
      <point x="524" y="1170" type="qcurve" smooth="yes"/>
      <point x="536" y="1170"/>
      <point x="549" y="1156"/>
    </contour>
    <contour>
      <point x="727" y="53" type="line"/>
      <point x="727" y="33" type="line" smooth="yes"/>
      <point x="727" y="-132"/>
      <point x="606" y="-328"/>
      <point x="500" y="-328" type="qcurve" smooth="yes"/>
      <point x="395" y="-328"/>
      <point x="276" y="-122"/>
      <point x="276" y="48" type="qcurve" smooth="yes"/>
      <point x="276" y="182"/>
      <point x="300" y="344"/>
      <point x="346" y="429" type="qcurve" smooth="yes"/>
      <point x="399" y="531"/>
      <point x="440" y="658"/>
      <point x="440" y="728" type="qcurve" smooth="yes"/>
      <point x="440" y="738" type="line"/>
      <point x="626" y="738" type="line"/>
      <point x="626" y="728" type="line" smooth="yes"/>
      <point x="626" y="603"/>
      <point x="562" y="459"/>
      <point x="466" y="365" type="qcurve" smooth="yes"/>
      <point x="384" y="284"/>
      <point x="280" y="148"/>
      <point x="280" y="48" type="qcurve" smooth="yes"/>
      <point x="280" y="-52"/>
      <point x="388" y="-166"/>
      <point x="498" y="-166" type="qcurve" smooth="yes"/>
      <point x="608" y="-166"/>
      <point x="723" y="-62"/>
      <point x="723" y="33" type="qcurve" smooth="yes"/>
      <point x="723" y="53" type="line"/>
    </contour>
  </outline>
</glyph>
<glyph name="AE" format="2">
  <advance width="1914"/>
  <unicode hex="00C6"/>
  <anchor x="993" y="1456" name="top"/>
  <outline>
    <contour>
      <point x="47" y="0" type="line"/>
      <point x="928" y="1456" type="line"/>
      <point x="1648" y="1456" type="line"/>
      <point x="1648" y="1298" type="line"/>
      <point x="934" y="1298" type="line"/>
      <point x="934" y="158" type="line"/>
      <point x="1658" y="158" type="line"/>
      <point x="1658" y="0" type="line"/>
      <point x="930" y="0" type="line"/>
      <point x="930" y="1452" type="line"/>
      <point x="52" y="0" type="line"/>
    </contour>
    <contour>
      <point x="932" y="672" type="line"/>
      <point x="932" y="830" type="line"/>
      <point x="1556" y="830" type="line"/>
      <point x="1556" y="672" type="line"/>
    </contour>
    <contour>
      <point x="263" y="353" type="line"/>
      <point x="369" y="528" type="line"/>
      <point x="932" y="528" type="line"/>
      <point x="932" y="353" type="line"/>
    </contour>
  </outline>
</glyph>
<glyph name="germandbls" format="2">
  <advance width="1186"/>
  <unicode hex="00DF"/>
  <outline>
    <contour>
      <point x="332" y="1092" type="qcurve" name="hr00"/>
      <point x="332" y="0" type="line"/>
      <point x="328" y="0" type="line"/>
      <point x="328" y="1092" type="line" smooth="yes"/>
      <point x="328" y="1295"/>
      <point x="440" y="1534"/>
      <point x="547" y="1534" type="qcurve" smooth="yes"/>
      <point x="635" y="1534"/>
      <point x="746" y="1361"/>
      <point x="746" y="1215" type="qcurve" smooth="yes"/>
      <point x="746" y="1127"/>
      <point x="746" y="1016"/>
      <point x="744" y="973" type="qcurve" smooth="yes"/>
      <point x="742" y="935"/>
      <point x="737" y="859"/>
      <point x="737" y="830" type="qcurve" smooth="yes"/>
      <point x="737" y="782"/>
      <point x="815" y="681"/>
      <point x="862" y="619" type="qcurve" smooth="yes"/>
      <point x="907" y="560"/>
      <point x="967" y="412"/>
      <point x="967" y="302" type="qcurve" smooth="yes"/>
      <point x="967" y="158"/>
      <point x="843" y="-20"/>
      <point x="711" y="-20" type="qcurve" smooth="yes"/>
      <point x="585" y="-20"/>
      <point x="392" y="129"/>
      <point x="392" y="278" type="qcurve" smooth="yes"/>
      <point x="392" y="304" type="line"/>
      <point x="555" y="304" type="line"/>
      <point x="555" y="295" type="line" smooth="yes"/>
      <point x="555" y="211"/>
      <point x="660" y="131"/>
      <point x="755" y="131" type="qcurve" smooth="yes"/>
      <point x="856" y="131"/>
      <point x="963" y="218"/>
      <point x="963" y="302" type="qcurve" smooth="yes"/>
      <point x="963" y="371"/>
      <point x="864" y="466"/>
      <point x="807" y="512" type="qcurve" smooth="yes"/>
      <point x="735" y="569"/>
      <point x="563" y="706"/>
      <point x="563" y="797" type="qcurve" smooth="yes"/>
      <point x="563" y="871"/>
      <point x="646" y="982"/>
      <point x="678" y="1026" type="qcurve" smooth="yes"/>
      <point x="707" y="1066"/>
      <point x="742" y="1149"/>
      <point x="742" y="1215" type="qcurve" smooth="yes"/>
      <point x="742" y="1293"/>
      <point x="633" y="1383"/>
      <point x="551" y="1383" type="qcurve" smooth="yes"/>
      <point x="448" y="1383"/>
      <point x="332" y="1241"/>
    </contour>
  </outline>
</glyph>
<glyph name="eth" format="2">
  <advance width="760"/>
  <unicode hex="00F0"/>
  <outline>
    <contour>
      <point x="127" y="1421" type="qcurve"/>
      <point x="186" y="1581" type="line"/>
      <point x="398" y="1506"/>
      <point x="665" y="1008"/>
      <point x="665" y="633" type="qcurve"/>
      <point x="665" y="535" type="line"/>
      <point x="665" y="289"/>
      <point x="524" y="-20"/>
      <point x="388" y="-20" type="qcurve"/>
      <point x="254" y="-20"/>
      <point x="85" y="265"/>
      <point x="85" y="468" type="qcurve" smooth="yes"/>
      <point x="85" y="698"/>
      <point x="260" y="978"/>
      <point x="382" y="978" type="qcurve" smooth="yes"/>
      <point x="496" y="978"/>
      <point x="664" y="749"/>
      <point x="664" y="614" type="qcurve"/>
      <point x="662" y="614" type="line"/>
      <point x="662" y="680"/>
      <point x="523" y="826"/>
      <point x="385" y="826" type="qcurve" smooth="yes"/>
      <point x="244" y="826"/>
      <point x="89" y="632"/>
      <point x="89" y="468" type="qcurve" smooth="yes"/>
      <point x="89" y="345"/>
      <point x="242" y="132"/>
      <point x="383" y="132" type="qcurve" smooth="yes"/>
      <point x="511" y="132"/>
      <point x="661" y="363"/>
      <point x="661" y="535" type="qcurve" smooth="yes"/>
      <point x="661" y="635" type="line" smooth="yes"/>
      <point x="661" y="984"/>
      <point x="343" y="1355"/>
    </contour>
    <contour>
      <point x="675" y="1375" type="line"/>
      <point x="218" y="1061" type="line"/>
      <point x="135" y="1181" type="line"/>
      <point x="592" y="1494" type="line"/>
    </contour>
  </outline>
</glyph>
<glyph name="kgreenlandic" format="2">
  <advance width="823"/>
  <unicode hex="0138"/>
  <outline>
    <contour>
      <point x="152" y="1052" type="line"/>
      <point x="152" y="0" type="line"/>
      <point x="148" y="0" type="line"/>
      <point x="148" y="1052" type="line"/>
    </contour>
    <contour>
      <point x="839" y="1052" type="line"/>
      <point x="329" y="462" type="line"/>
      <point x="150" y="462" type="line"/>
      <point x="150" y="624" type="line"/>
      <point x="244" y="624" type="line"/>
      <point x="615" y="1052" type="line"/>
    </contour>
    <contour>
      <point x="784" y="0" type="line"/>
      <point x="298" y="547" type="line"/>
      <point x="301" y="550" type="line"/>
      <point x="788" y="0" type="line"/>
    </contour>
  </outline>
</glyph>
<glyph name="oe" format="2">
  <advance width="1340"/>
  <unicode hex="0153"/>
  <outline>
    <contour>
      <point x="417" y="-30" type="qcurve" smooth="yes"/>
      <point x="261" y="-30"/>
      <point x="85" y="272"/>
      <point x="85" y="510" type="qcurve" smooth="yes"/>
      <point x="85" y="542" type="line" smooth="yes"/>
      <point x="85" y="780"/>
      <point x="240" y="1081"/>
      <point x="391" y="1081" type="qcurve" smooth="yes"/>
      <point x="532" y="1081"/>
      <point x="674" y="921"/>
      <point x="686" y="866" type="qcurve"/>
      <point x="699" y="936"/>
      <point x="829" y="1082"/>
      <point x="939" y="1082" type="qcurve" smooth="yes"/>
      <point x="1087" y="1082"/>
      <point x="1263" y="800"/>
      <point x="1260" y="560" type="qcurve" smooth="yes"/>
      <point x="1260" y="484" type="line"/>
      <point x="703" y="484" type="line"/>
      <point x="703" y="632" type="line"/>
      <point x="1249" y="632" type="line"/>
      <point x="1250" y="656" type="line"/>
      <point x="1249" y="770"/>
      <point x="1100" y="930"/>
      <point x="954" y="930" type="qcurve" smooth="yes"/>
      <point x="830" y="930"/>
      <point x="704" y="706"/>
      <point x="704" y="542" type="qcurve" smooth="yes"/>
      <point x="704" y="510" type="line" smooth="yes"/>
      <point x="704" y="346"/>
      <point x="838" y="122"/>
      <point x="982" y="122" type="qcurve" smooth="yes"/>
      <point x="1070" y="122"/>
      <point x="1204" y="202"/>
      <point x="1245" y="262" type="qcurve"/>
      <point x="1253" y="261" type="line"/>
      <point x="1229" y="137"/>
      <point x="1106" y="-30"/>
      <point x="986" y="-30" type="qcurve" smooth="yes"/>
      <point x="860" y="-30"/>
      <point x="705" y="110"/>
      <point x="686" y="185" type="qcurve"/>
      <point x="667" y="111"/>
      <point x="542" y="-30"/>
    </contour>
    <contour>
      <point x="395" y="122" type="qcurve" smooth="yes"/>
      <point x="547" y="122"/>
      <point x="701" y="346"/>
      <point x="701" y="510" type="qcurve" smooth="yes"/>
      <point x="701" y="542" type="line" smooth="yes"/>
      <point x="701" y="706"/>
      <point x="547" y="930"/>
      <point x="395" y="930" type="qcurve" smooth="yes"/>
      <point x="243" y="930"/>
      <point x="89" y="705"/>
      <point x="89" y="542" type="qcurve" smooth="yes"/>
      <point x="89" y="510" type="line" smooth="yes"/>
      <point x="89" y="347"/>
      <point x="243" y="122"/>
    </contour>
  </outline>
</glyph>
<glyph name="schwa" format="2">
  <advance width="721"/>
  <unicode hex="0259"/>
  <outline>
    <contour>
      <point x="636" y="542" type="qcurve" smooth="yes"/>
      <point x="636" y="510" type="line" smooth="yes"/>
      <point x="636" y="272"/>
      <point x="479" y="-30"/>
      <point x="349" y="-30" type="qcurve" smooth="yes"/>
      <point x="219" y="-30"/>
      <point x="80" y="252"/>
      <point x="80" y="492" type="qcurve" smooth="yes"/>
      <point x="80" y="568" type="line"/>
      <point x="634" y="568" type="line"/>
      <point x="634" y="420" type="line"/>
      <point x="86" y="420" type="line"/>
      <point x="86" y="396" type="line" smooth="yes"/>
      <point x="86" y="282"/>
      <point x="216" y="122"/>
      <point x="338" y="122" type="qcurve" smooth="yes"/>
      <point x="486" y="122"/>
      <point x="632" y="347"/>
      <point x="632" y="510" type="qcurve" smooth="yes"/>
      <point x="632" y="542" type="line" smooth="yes"/>
      <point x="632" y="705"/>
      <point x="490" y="930"/>
      <point x="340" y="930" type="qcurve" smooth="yes"/>
      <point x="247" y="930"/>
      <point x="136" y="889"/>
      <point x="101" y="862" type="qcurve"/>
      <point x="84" y="877" type="line"/>
      <point x="109" y="954"/>
      <point x="240" y="1082"/>
      <point x="331" y="1082" type="qcurve" smooth="yes"/>
      <point x="479" y="1082"/>
      <point x="636" y="780"/>
    </contour>
  </outline>
</glyph>
<glyph name="dotaccentcomb" format="2">
  <unicode hex="0307"/>
  <anchor x="0" y="1052" name="_top"/>
  <anchor x="0" y="1458" name="top"/>
  <outline>
    <contour>
      <point x="-25" y="1337" type="qcurve" smooth="yes"/>
      <point x="-25" y="1349"/>
      <point x="-12" y="1362"/>
      <point x="0" y="1362" type="qcurve" smooth="yes"/>
      <point x="12" y="1362"/>
      <point x="25" y="1349"/>
      <point x="25" y="1337" type="qcurve" smooth="yes"/>
      <point x="25" y="1325"/>
      <point x="12" y="1312"/>
      <point x="0" y="1312" type="qcurve" smooth="yes"/>
      <point x="-12" y="1312"/>
      <point x="-25" y="1325"/>
    </contour>
  </outline>
</glyph>
<glyph name="hookabovecomb" format="2">
  <unicode hex="0309"/>
  <anchor x="0" y="1052" name="_top"/>
  <anchor x="0" y="1692" name="top"/>
  <outline>
    <contour>
      <point x="-70" y="1220" type="line"/>
      <point x="-70" y="1259" type="line" smooth="yes"/>
      <point x="-70" y="1311"/>
      <point x="-11" y="1381"/>
      <point x="47" y="1392" type="qcurve" smooth="yes"/>
      <point x="122" y="1405"/>
      <point x="223" y="1458"/>
      <point x="223" y="1513" type="qcurve" smooth="yes"/>
      <point x="223" y="1582"/>
      <point x="95" y="1689"/>
      <point x="9" y="1689" type="qcurve" smooth="yes"/>
      <point x="-61" y="1689"/>
      <point x="-173" y="1652"/>
      <point x="-220" y="1628" type="qcurve"/>
      <point x="-222" y="1632" type="line"/>
      <point x="-171" y="1657"/>
      <point x="-63" y="1693"/>
      <point x="9" y="1693" type="qcurve" smooth="yes"/>
      <point x="98" y="1693"/>
      <point x="227" y="1584"/>
      <point x="227" y="1513" type="qcurve" smooth="yes"/>
      <point x="227" y="1381"/>
      <point x="130" y="1251"/>
      <point x="70" y="1251" type="qcurve"/>
      <point x="70" y="1220" type="line"/>
    </contour>
  </outline>
</glyph>
<glyph name="ringcomb" format="2">
  <unicode hex="030A"/>
  <anchor x="0" y="1052" name="_top"/>
  <anchor x="0" y="1647" name="top"/>
  <outline>
    <contour>
      <point x="-226" y="1429" type="qcurve"/>
      <point x="-226" y="1519"/>
      <point x="-96" y="1647"/>
      <point x="0" y="1647" type="qcurve" smooth="yes"/>
      <point x="94" y="1647"/>
      <point x="226" y="1519"/>
      <point x="226" y="1429" type="qcurve" smooth="yes"/>
      <point x="226" y="1338"/>
      <point x="94" y="1215"/>
      <point x="0" y="1215" type="qcurve" smooth="yes"/>
      <point x="-96" y="1215"/>
      <point x="-226" y="1338"/>
    </contour>
    <contour>
      <point x="-222" y="1429" type="qcurve"/>
      <point x="-222" y="1349"/>
      <point x="-97" y="1219"/>
      <point x="0" y="1219" type="qcurve" smooth="yes"/>
      <point x="97" y="1219"/>
      <point x="222" y="1345"/>
      <point x="222" y="1429" type="qcurve" smooth="yes"/>
      <point x="222" y="1513"/>
      <point x="97" y="1643"/>
      <point x="0" y="1643" type="qcurve" smooth="yes"/>
      <point x="-97" y="1643"/>
      <point x="-222" y="1513"/>
    </contour>
  </outline>
</glyph>
<glyph name="cedillacomb" format="2">
  <unicode hex="0327"/>
  <anchor x="0" y="0" name="_bottom"/>
  <anchor x="0" y="-457" name="bottom"/>
  <outline>
    <contour>
      <point x="-72" y="20" type="line"/>
      <point x="57" y="20" type="line"/>
      <point x="29" y="-75" type="line"/>
      <point x="50" y="-89"/>
      <point x="102" y="-161"/>
      <point x="102" y="-248" type="qcurve" smooth="yes"/>
      <point x="102" y="-341"/>
      <point x="13" y="-456"/>
      <point x="-164" y="-457" type="qcurve"/>
      <point x="-171" y="-350" type="line"/>
      <point x="-32" y="-353"/>
      <point x="99" y="-303"/>
      <point x="99" y="-250" type="qcurve" smooth="yes"/>
      <point x="99" y="-201"/>
      <point x="10" y="-163"/>
      <point x="-113" y="-157" type="qcurve"/>
    </contour>
  </outline>
</glyph>
<glyph name="Lambda" format="2">
  <advance width="1141"/>
  <unicode hex="039B"/>
  <outline>
    <contour>
      <point x="0" y="0" type="line"/>
      <point x="534" y="1466" type="line"/>
      <point x="614" y="1466" type="line"/>
      <point x="1141" y="0" type="line"/>
      <point x="1137" y="0" type="line"/>
      <point x="703" y="1208" type="line" smooth="yes"/>
      <point x="691" y="1241"/>
      <point x="667" y="1305"/>
      <point x="658" y="1335" type="qcurve"/>
      <point x="647" y="1335" type="line"/>
      <point x="642" y="1302"/>
      <point x="624" y="1241"/>
      <point x="613" y="1208" type="qcurve" smooth="yes"/>
      <point x="192" y="0" type="line"/>
    </contour>
  </outline>
</glyph>
<glyph name="Omega" format="2">
  <advance width="1120"/>
  <unicode hex="03A9"/>
  <anchor x="-185" y="1074" name="tonos"/>
  <outline>
    <contour>
      <point x="115" y="0" type="line"/>
      <point x="115" y="159" type="line"/>
      <point x="425" y="159" type="line"/>
      <point x="425" y="309" type="line"/>
      <point x="279" y="374"/>
      <point x="115" y="639"/>
      <point x="115" y="857" type="qcurve"/>
      <point x="115" y="870" type="line"/>
      <point x="115" y="1160"/>
      <point x="363" y="1486"/>
      <point x="549" y="1486" type="qcurve" smooth="yes"/>
      <point x="735" y="1486"/>
      <point x="983" y="1158"/>
      <point x="983" y="869" type="qcurve"/>
      <point x="983" y="858" type="line"/>
      <point x="983" y="641"/>
      <point x="819" y="373"/>
      <point x="673" y="309" type="qcurve"/>
      <point x="673" y="159" type="line"/>
      <point x="1005" y="159" type="line"/>
      <point x="1005" y="0" type="line"/>
      <point x="669" y="0" type="line"/>
      <point x="669" y="437" type="line"/>
      <point x="828" y="469"/>
      <point x="979" y="694"/>
      <point x="979" y="851" type="qcurve"/>
      <point x="979" y="879" type="line"/>
      <point x="979" y="1089"/>
      <point x="750" y="1322"/>
      <point x="549" y="1322" type="qcurve"/>
      <point x="348" y="1322"/>
      <point x="119" y="1089"/>
      <point x="119" y="879" type="qcurve"/>
      <point x="119" y="848" type="line"/>
      <point x="119" y="694"/>
      <point x="270" y="469"/>
      <point x="429" y="437" type="qcurve"/>
      <point x="429" y="0" type="line"/>
    </contour>
  </outline>
</glyph>
<glyph name="alpha" format="2">
  <advance width="870"/>
  <unicode hex="03B1"/>
  <anchor x="364" y="1052" name="top"/>
  <outline>
    <contour>
      <point x="375" y="-20" type="qcurve" smooth="yes"/>
      <point x="244" y="-20"/>
      <point x="85" y="280"/>
      <point x="85" y="510" type="qcurve" smooth="yes"/>
      <point x="85" y="542" type="line" smooth="yes"/>
      <point x="85" y="772"/>
      <point x="244" y="1072"/>
      <point x="375" y="1072" type="qcurve" smooth="yes"/>
      <point x="510" y="1072"/>
      <point x="652" y="806"/>
      <point x="652" y="561" type="qcurve" smooth="yes"/>
      <point x="652" y="475" type="line" smooth="yes"/>
      <point x="652" y="252"/>
      <point x="507" y="-20"/>
    </contour>
    <contour>
      <point x="359" y="132" type="qcurve" smooth="yes"/>
      <point x="490" y="132"/>
      <point x="651" y="324"/>
      <point x="651" y="473" type="qcurve" smooth="yes"/>
      <point x="651" y="561" type="line"/>
      <point x="651" y="734"/>
      <point x="486" y="920"/>
      <point x="359" y="920" type="qcurve" smooth="yes"/>
      <point x="219" y="920"/>
      <point x="89" y="702"/>
      <point x="89" y="542" type="qcurve" smooth="yes"/>
      <point x="89" y="510" type="line" smooth="yes"/>
      <point x="89" y="350"/>
      <point x="219" y="132"/>
    </contour>
    <contour>
      <point x="728" y="-30" type="qcurve" smooth="yes"/>
      <point x="692" y="-30"/>
      <point x="650" y="74"/>
      <point x="650" y="255" type="qcurve"/>
      <point x="650" y="255" type="line"/>
      <point x="650" y="562" type="line"/>
      <point x="650" y="562" type="line"/>
      <point x="650" y="1052" type="line"/>
      <point x="656" y="1052" type="line"/>
      <point x="656" y="262" type="line" smooth="yes"/>
      <point x="656" y="187"/>
      <point x="701" y="130"/>
      <point x="751" y="130" type="qcurve"/>
      <point x="766" y="130"/>
      <point x="803" y="137"/>
      <point x="820" y="144" type="qcurve"/>
      <point x="820" y="-8" type="line"/>
      <point x="801" y="-17"/>
      <point x="762" y="-30"/>
    </contour>
  </outline>
</glyph>
<glyph name="gamma" format="2">
  <advance width="757"/>
  <unicode hex="03B3"/>
  <outline>
    <contour>
      <point x="368" y="-366" type="line"/>
      <point x="368" y="58" type="line"/>
      <point x="0" y="1052" type="line"/>
      <point x="4" y="1052" type="line"/>
      <point x="252" y="385" type="line" smooth="yes"/>
      <point x="267" y="345"/>
      <point x="292" y="280"/>
      <point x="301" y="255" type="qcurve"/>
      <point x="306" y="255" type="line"/>
      <point x="310" y="282"/>
      <point x="326" y="345"/>
      <point x="340" y="385" type="qcurve" smooth="yes"/>
      <point x="581" y="1052" type="line"/>
      <point x="757" y="1052" type="line"/>
      <point x="372" y="58" type="line"/>
      <point x="372" y="-366" type="line"/>
    </contour>
  </outline>
</glyph>
<glyph name="delta" format="2">
  <advance width="772"/>
  <unicode hex="03B4"/>
  <outline>
    <contour>
      <point x="380" y="-30" type="qcurve" smooth="yes"/>
      <point x="241" y="-30"/>
      <point x="85" y="231"/>
      <point x="85" y="475" type="qcurve"/>
      <point x="85" y="482" type="line"/>
      <point x="85" y="679"/>
      <point x="201" y="922"/>
      <point x="379" y="984" type="qcurve"/>
      <point x="521" y="910" type="line"/>
      <point x="309" y="900"/>
      <point x="89" y="674"/>
      <point x="89" y="483" type="qcurve"/>
      <point x="89" y="473" type="line"/>
      <point x="89" y="310"/>
      <point x="231" y="124"/>
      <point x="377" y="122" type="qcurve"/>
      <point x="520" y="121"/>
      <point x="683" y="318"/>
      <point x="683" y="475" type="qcurve"/>
      <point x="683" y="484" type="line"/>
      <point x="683" y="619"/>
      <point x="569" y="821"/>
      <point x="432" y="888" type="qcurve" smooth="yes"/>
      <point x="292" y="956"/>
      <point x="180" y="1136"/>
      <point x="180" y="1272" type="qcurve" smooth="yes"/>
      <point x="180" y="1411"/>
      <point x="275" y="1556"/>
      <point x="364" y="1556" type="qcurve" smooth="yes"/>
      <point x="435" y="1556"/>
      <point x="558" y="1518"/>
      <point x="606" y="1487" type="qcurve"/>
      <point x="577" y="1333" type="line"/>
      <point x="535" y="1364"/>
      <point x="424" y="1404"/>
      <point x="363" y="1404" type="qcurve" smooth="yes"/>
      <point x="278" y="1404"/>
      <point x="184" y="1334"/>
      <point x="184" y="1271" type="qcurve" smooth="yes"/>
      <point x="184" y="1216"/>
      <point x="339" y="1112"/>
      <point x="459" y="1042" type="qcurve" smooth="yes"/>
      <point x="586" y="968"/>
      <point x="687" y="694"/>
      <point x="687" y="481" type="qcurve"/>
      <point x="687" y="476" type="line"/>
      <point x="687" y="229"/>
      <point x="511" y="-30"/>
    </contour>
  </outline>
</glyph>
<glyph name="lambda" format="2">
  <advance width="765"/>
  <unicode hex="03BB"/>
  <outline>
    <contour>
      <point x="0" y="0" type="line"/>
      <point x="400" y="1041" type="line"/>
      <point x="377" y="1107" type="line" smooth="yes"/>
      <point x="319" y="1273"/>
      <point x="237" y="1396"/>
      <point x="159" y="1396" type="qcurve" smooth="yes"/>
      <point x="133" y="1396"/>
      <point x="66" y="1389"/>
      <point x="40" y="1381" type="qcurve"/>
      <point x="40" y="1535" type="line"/>
      <point x="57" y="1545"/>
      <point x="113" y="1556"/>
      <point x="134" y="1556" type="qcurve" smooth="yes"/>
      <point x="197" y="1556"/>
      <point x="270" y="1427"/>
      <point x="331" y="1252" type="qcurve" smooth="yes"/>
      <point x="765" y="0" type="line"/>
      <point x="761" y="0" type="line"/>
      <point x="540" y="637" type="line" smooth="yes"/>
      <point x="521" y="693"/>
      <point x="497" y="759"/>
      <point x="481" y="808" type="qcurve"/>
      <point x="473" y="808" type="line"/>
      <point x="470" y="760"/>
      <point x="452" y="679"/>
      <point x="436" y="637" type="qcurve" smooth="yes"/>
      <point x="200" y="0" type="line"/>
    </contour>
  </outline>
</glyph>
<glyph name="rho" format="2">
  <advance width="1170"/>
  <unicode hex="03C1"/>
  <outline>
    <contour>
      <point x="330" y="-416" type="line"/>
      <point x="330" y="541" type="line" smooth="yes"/>
      <point x="330" y="788"/>
      <point x="482" y="1072"/>
      <point x="614" y="1072" type="qcurve" smooth="yes"/>
      <point x="760" y="1072"/>
      <point x="899" y="782"/>
      <point x="899" y="552" type="qcurve" smooth="yes"/>
      <point x="899" y="520" type="line" smooth="yes"/>
      <point x="899" y="290"/>
      <point x="754" y="-20"/>
      <point x="632" y="-20" type="qcurve" smooth="yes"/>
      <point x="528" y="-20"/>
      <point x="383" y="62"/>
      <point x="332" y="123" type="qcurve"/>
      <point x="332" y="311" type="line"/>
      <point x="386" y="217"/>
      <point x="519" y="132"/>
      <point x="605" y="132" type="qcurve" smooth="yes"/>
      <point x="755" y="132"/>
      <point x="895" y="360"/>
      <point x="895" y="520" type="qcurve" smooth="yes"/>
      <point x="895" y="552" type="line" smooth="yes"/>
      <point x="895" y="712"/>
      <point x="765" y="920"/>
      <point x="615" y="920" type="qcurve" smooth="yes"/>
      <point x="495" y="920"/>
      <point x="334" y="750"/>
      <point x="334" y="546" type="qcurve" smooth="yes"/>
      <point x="334" y="-416" type="line"/>
    </contour>
  </outline>
</glyph>
<glyph name="sigma" format="2">
  <advance width="819"/>
  <unicode hex="03C3"/>
  <outline>
    <contour>
      <point x="396" y="-30" type="qcurve" smooth="yes"/>
      <point x="254" y="-30"/>
      <point x="85" y="250"/>
      <point x="85" y="491" type="qcurve" smooth="yes"/>
      <point x="85" y="523" type="line" smooth="yes"/>
      <point x="85" y="740"/>
      <point x="272" y="1052"/>
      <point x="464" y="1052" type="qcurve"/>
      <point x="769" y="1052" type="line"/>
      <point x="769" y="900" type="line"/>
      <point x="512" y="900" type="line"/>
      <point x="512" y="900" type="line"/>
      <point x="597" y="867"/>
      <point x="706" y="685"/>
      <point x="706" y="526" type="qcurve" smooth="yes"/>
      <point x="706" y="495" type="line" smooth="yes"/>
      <point x="706" y="264"/>
      <point x="537" y="-30"/>
    </contour>
    <contour>
      <point x="396" y="122" type="qcurve" smooth="yes"/>
      <point x="548" y="122"/>
      <point x="702" y="337"/>
      <point x="702" y="495" type="qcurve" smooth="yes"/>
      <point x="702" y="526" type="line" smooth="yes"/>
      <point x="702" y="683"/>
      <point x="594" y="865"/>
      <point x="506" y="899" type="qcurve"/>
      <point x="279" y="906"/>
      <point x="90" y="671"/>
      <point x="90" y="522" type="qcurve" smooth="yes"/>
      <point x="90" y="491" type="line" smooth="yes"/>
      <point x="90" y="333"/>
      <point x="244" y="122"/>
    </contour>
  </outline>
</glyph>
<glyph name="phi" format="2">
  <advance width="894"/>
  <unicode hex="03C6"/>
  <outline>
    <contour>
      <point x="445" y="-416" type="line"/>
      <point x="445" y="44" type="line"/>
      <point x="445" y="85" type="line"/>
      <point x="445" y="981" type="line"/>
      <point x="445" y="1022" type="line"/>
      <point x="445" y="1536" type="line"/>
      <point x="449" y="1536" type="line"/>
      <point x="449" y="1022" type="line"/>
      <point x="449" y="979" type="line"/>
      <point x="449" y="85" type="line"/>
      <point x="449" y="44" type="line"/>
      <point x="449" y="-416" type="line"/>
    </contour>
    <contour>
      <point x="446" y="-32" type="line" smooth="yes"/>
      <point x="268" y="-32"/>
      <point x="85" y="266"/>
      <point x="85" y="510" type="qcurve" smooth="yes"/>
      <point x="85" y="542" type="line" smooth="yes"/>
      <point x="85" y="786"/>
      <point x="268" y="1082"/>
      <point x="446" y="1082" type="qcurve" smooth="yes"/>
      <point x="448" y="1082" type="line" smooth="yes"/>
      <point x="626" y="1082"/>
      <point x="809" y="786"/>
      <point x="809" y="542" type="qcurve" smooth="yes"/>
      <point x="809" y="510" type="line" smooth="yes"/>
      <point x="809" y="266"/>
      <point x="626" y="-32"/>
      <point x="448" y="-32" type="qcurve" smooth="yes"/>
    </contour>
    <contour>
      <point x="445" y="122" type="qcurve" smooth="yes"/>
      <point x="449" y="122" type="line" smooth="yes"/>
      <point x="646" y="122"/>
      <point x="805" y="342"/>
      <point x="805" y="510" type="qcurve" smooth="yes"/>
      <point x="805" y="542" type="line" smooth="yes"/>
      <point x="805" y="710"/>
      <point x="646" y="930"/>
      <point x="449" y="930" type="qcurve" smooth="yes"/>
      <point x="445" y="930" type="line" smooth="yes"/>
      <point x="248" y="930"/>
      <point x="89" y="710"/>
      <point x="89" y="542" type="qcurve" smooth="yes"/>
      <point x="89" y="510" type="line" smooth="yes"/>
      <point x="89" y="342"/>
      <point x="248" y="122"/>
    </contour>
  </outline>
</glyph>
<glyph name="omega" format="2">
  <advance width="1016"/>
  <unicode hex="03C9"/>
  <anchor x="509" y="1052" name="top"/>
  <outline>
    <contour>
      <point x="342" y="-30" type="qcurve"/>
      <point x="236" y="-30"/>
      <point x="95" y="217"/>
      <point x="95" y="471" type="qcurve"/>
      <point x="95" y="656"/>
      <point x="215" y="944"/>
      <point x="287" y="1052" type="qcurve"/>
      <point x="293" y="1052" type="line"/>
      <point x="224" y="943"/>
      <point x="99" y="645"/>
      <point x="99" y="471" type="qcurve"/>
      <point x="99" y="289"/>
      <point x="197" y="126"/>
      <point x="303" y="126" type="qcurve"/>
      <point x="406" y="126"/>
      <point x="506" y="296"/>
      <point x="506" y="408" type="qcurve" smooth="yes"/>
      <point x="506" y="722" type="line"/>
      <point x="510" y="722" type="line"/>
      <point x="510" y="408" type="line" smooth="yes"/>
      <point x="510" y="296"/>
      <point x="609" y="126"/>
      <point x="714" y="126" type="qcurve"/>
      <point x="819" y="126"/>
      <point x="917" y="289"/>
      <point x="917" y="471" type="qcurve"/>
      <point x="917" y="645"/>
      <point x="813" y="945"/>
      <point x="718" y="1052" type="qcurve"/>
      <point x="724" y="1052" type="line"/>
      <point x="821" y="945"/>
      <point x="921" y="656"/>
      <point x="921" y="471" type="qcurve" smooth="yes"/>
      <point x="921" y="219"/>
      <point x="781" y="-30"/>
      <point x="669" y="-30" type="qcurve"/>
      <point x="599" y="-30"/>
      <point x="529" y="54"/>
      <point x="498" y="182" type="qcurve"/>
      <point x="514" y="182" type="line"/>
      <point x="493" y="54"/>
      <point x="417" y="-30"/>
    </contour>
  </outline>
</glyph>
<glyph name="Ieukran" format="2">
  <advance width="981"/>
  <unicode hex="0404"/>
  <guideline x="211" y="787" angle="90" identifier="mFTeE97JTj"/>
  <outline>
    <contour>
      <point x="522" y="-30" type="qcurve" smooth="yes"/>
      <point x="347" y="-30"/>
      <point x="115" y="346"/>
      <point x="115" y="682" type="qcurve" smooth="yes"/>
      <point x="115" y="774" type="line" smooth="yes"/>
      <point x="115" y="1110"/>
      <point x="347" y="1486"/>
      <point x="522" y="1486" type="qcurve" smooth="yes"/>
      <point x="697" y="1486"/>
      <point x="897" y="1201"/>
      <point x="897" y="1000" type="qcurve" smooth="yes"/>
      <point x="897" y="990" type="line"/>
      <point x="893" y="990" type="line"/>
      <point x="893" y="1000" type="line" smooth="yes"/>
      <point x="893" y="1139"/>
      <point x="713" y="1322"/>
      <point x="530" y="1322" type="qcurve" smooth="yes"/>
      <point x="351" y="1322"/>
      <point x="119" y="1052"/>
      <point x="119" y="797" type="qcurve" smooth="yes"/>
      <point x="119" y="674" type="line" smooth="yes"/>
      <point x="119" y="426"/>
      <point x="350" y="134"/>
      <point x="530" y="134" type="qcurve" smooth="yes"/>
      <point x="702" y="134"/>
      <point x="875" y="312"/>
      <point x="892" y="456" type="qcurve"/>
      <point x="893" y="466" type="line"/>
      <point x="897" y="466" type="line"/>
      <point x="896" y="456" type="line"/>
      <point x="876" y="256"/>
      <point x="697" y="-30"/>
    </contour>
    <contour>
      <point x="117" y="672" type="line"/>
      <point x="117" y="830" type="line"/>
      <point x="746" y="830" type="line"/>
      <point x="746" y="672" type="line"/>
    </contour>
  </outline>
</glyph>
<glyph name="Lje" format="2">
  <advance width="1484"/>
  <unicode hex="0409"/>
  <outline>
    <contour>
      <point x="119" y="-30" type="qcurve" smooth="yes"/>
      <point x="95" y="-30"/>
      <point x="39" y="-23"/>
      <point x="10" y="-13" type="qcurve"/>
      <point x="10" y="151" type="line"/>
      <point x="34" y="143"/>
      <point x="74" y="138"/>
      <point x="95" y="138" type="qcurve" smooth="yes"/>
      <point x="197" y="138"/>
      <point x="276" y="336"/>
      <point x="289" y="559" type="qcurve" smooth="yes"/>
      <point x="340" y="1456" type="line"/>
      <point x="834" y="1456" type="line"/>
      <point x="834" y="158" type="line"/>
      <point x="1124" y="158" type="line" smooth="yes"/>
      <point x="1294" y="158"/>
      <point x="1430" y="325"/>
      <point x="1430" y="445" type="qcurve" smooth="yes"/>
      <point x="1430" y="565"/>
      <point x="1294" y="728"/>
      <point x="1124" y="728" type="qcurve" smooth="yes"/>
      <point x="832" y="728" type="line"/>
      <point x="832" y="886" type="line"/>
      <point x="1084" y="886" type="line"/>
      <point x="1274" y="886"/>
      <point x="1434" y="645"/>
      <point x="1434" y="445" type="qcurve" smooth="yes"/>
      <point x="1434" y="245"/>
      <point x="1274" y="0"/>
      <point x="1084" y="0" type="qcurve"/>
      <point x="830" y="0" type="line"/>
      <point x="830" y="1298" type="line"/>
      <point x="334" y="1298" type="line"/>
      <point x="294" y="554" type="line" smooth="yes"/>
      <point x="278" y="258"/>
      <point x="213" y="-30"/>
    </contour>
  </outline>
</glyph>
<glyph name="Nje" format="2">
  <advance width="1462"/>
  <unicode hex="040A"/>
  <outline>
    <contour>
      <point x="170" y="0" type="line"/>
      <point x="174" y="0" type="line"/>
      <point x="174" y="1456" type="line"/>
      <point x="170" y="1456" type="line"/>
    </contour>
    <contour>
      <point x="808" y="0" type="line"/>
      <point x="1062" y="0" type="line"/>
      <point x="1262" y="0"/>
      <point x="1412" y="241"/>
      <point x="1412" y="437" type="qcurve" smooth="yes"/>
      <point x="1412" y="633"/>
      <point x="1262" y="870"/>
      <point x="1062" y="870" type="qcurve"/>
      <point x="811" y="870" type="line"/>
      <point x="811" y="712" type="line"/>
      <point x="1102" y="712" type="line" smooth="yes"/>
      <point x="1272" y="712"/>
      <point x="1408" y="554"/>
      <point x="1408" y="437" type="qcurve" smooth="yes"/>
      <point x="1408" y="320"/>
      <point x="1272" y="158"/>
      <point x="1102" y="158" type="qcurve" smooth="yes"/>
      <point x="812" y="158" type="line"/>
      <point x="812" y="1456" type="line"/>
      <point x="808" y="1456" type="line"/>
    </contour>
    <contour>
      <point x="172" y="712" type="line"/>
      <point x="809" y="712" type="line"/>
      <point x="809" y="870" type="line"/>
      <point x="172" y="870" type="line"/>
    </contour>
  </outline>
</glyph>
<glyph name="Ze" format="2">
  <advance width="886"/>
  <unicode hex="0417"/>
  <anchor x="460" y="0" name="bottom"/>
  <outline>
    <contour>
      <point x="451" y="134" type="qcurve" smooth="yes"/>
      <point x="624" y="134"/>
      <point x="782" y="289"/>
      <point x="782" y="420" type="qcurve" smooth="yes"/>
      <point x="782" y="540"/>
      <point x="642" y="680"/>
      <point x="492" y="680" type="qcurve" smooth="yes"/>
      <point x="260" y="680" type="line"/>
      <point x="260" y="836" type="line"/>
      <point x="462" y="836" type="line" smooth="yes"/>
      <point x="612" y="836"/>
      <point x="744" y="963"/>
      <point x="744" y="1075" type="qcurve" smooth="yes"/>
      <point x="744" y="1194"/>
      <point x="598" y="1322"/>
      <point x="439" y="1322" type="qcurve" smooth="yes"/>
      <point x="280" y="1322"/>
      <point x="107" y="1177"/>
      <point x="107" y="1022" type="qcurve" smooth="yes"/>
      <point x="107" y="1010" type="line"/>
      <point x="103" y="1010" type="line"/>
      <point x="103" y="1020" type="line" smooth="yes"/>
      <point x="103" y="1222"/>
      <point x="268" y="1486"/>
      <point x="437" y="1486" type="qcurve" smooth="yes"/>
      <point x="587" y="1486"/>
      <point x="762" y="1287"/>
      <point x="762" y="1075" type="qcurve" smooth="yes"/>
      <point x="762" y="953"/>
      <point x="645" y="796"/>
      <point x="559" y="768" type="qcurve"/>
      <point x="559" y="764" type="line"/>
      <point x="658" y="737"/>
      <point x="786" y="560"/>
      <point x="786" y="420" type="qcurve" smooth="yes"/>
      <point x="786" y="206"/>
      <point x="601" y="-30"/>
      <point x="446" y="-30" type="qcurve" smooth="yes"/>
      <point x="283" y="-30"/>
      <point x="84" y="204"/>
      <point x="84" y="456" type="qcurve" smooth="yes"/>
      <point x="84" y="466" type="line"/>
      <point x="88" y="466" type="line"/>
      <point x="88" y="456" type="line" smooth="yes"/>
      <point x="88" y="287"/>
      <point x="268" y="134"/>
    </contour>
  </outline>
</glyph>
<glyph name="Icyr" format="2">
  <advance width="1102"/>
  <unicode hex="0418"/>
  <guideline x="739" y="930" angle="90" identifier="jpSOnFR6u4"/>
  <anchor x="739" y="1456" name="top"/>
  <outline>
    <contour>
      <point x="932" y="0" type="line"/>
      <point x="928" y="0" type="line"/>
      <point x="928" y="1163" type="line" smooth="yes"/>
      <point x="928" y="1193"/>
      <point x="928" y="1298"/>
      <point x="928" y="1328" type="qcurve"/>
      <point x="921" y="1328" type="line"/>
      <point x="911" y="1303"/>
      <point x="871" y="1216"/>
      <point x="855" y="1183" type="qcurve" smooth="yes"/>
      <point x="289" y="0" type="line"/>
      <point x="170" y="0" type="line"/>
      <point x="170" y="1456" type="line"/>
      <point x="174" y="1456" type="line"/>
      <point x="174" y="293" type="line" smooth="yes"/>
      <point x="174" y="263"/>
      <point x="174" y="158"/>
      <point x="174" y="128" type="qcurve"/>
      <point x="183" y="128" type="line"/>
      <point x="193" y="154"/>
      <point x="231" y="240"/>
      <point x="247" y="273" type="qcurve" smooth="yes"/>
      <point x="813" y="1456" type="line"/>
      <point x="932" y="1456" type="line"/>
    </contour>
  </outline>
</glyph>
<glyph name="Ka" format="2">
  <advance width="1102"/>
  <unicode hex="041A"/>
  <guideline x="480" y="796" angle="90" identifier="LxfLwWU0sJ"/>
  <anchor x="562" y="1456" name="top"/>
  <anchor x="958" y="0" name="cy_descender"/>
  <outline>
    <contour>
      <point x="1074" y="0" type="line"/>
      <point x="377" y="808" type="line"/>
      <point x="379" y="811" type="line"/>
      <point x="1078" y="0" type="line"/>
    </contour>
    <contour>
      <point x="172" y="830" type="line"/>
      <point x="292" y="830" type="line"/>
      <point x="837" y="1456" type="line"/>
      <point x="1054" y="1456" type="line"/>
      <point x="370" y="672" type="line"/>
      <point x="172" y="672" type="line"/>
    </contour>
    <contour>
      <point x="170" y="0" type="line"/>
      <point x="170" y="1456" type="line"/>
      <point x="174" y="1456" type="line"/>
      <point x="174" y="0" type="line"/>
    </contour>
  </outline>
</glyph>
<glyph name="Soft" format="2">
  <advance width="824"/>
  <unicode hex="042C"/>
  <outline>
    <contour>
      <point x="170" y="0" type="line"/>
      <point x="170" y="1456" type="line"/>
      <point x="174" y="1456" type="line"/>
      <point x="174" y="158" type="line"/>
      <point x="464" y="158" type="line" smooth="yes"/>
      <point x="634" y="158"/>
      <point x="770" y="325"/>
      <point x="770" y="445" type="qcurve" smooth="yes"/>
      <point x="770" y="565"/>
      <point x="634" y="728"/>
      <point x="464" y="728" type="qcurve" smooth="yes"/>
      <point x="172" y="728" type="line"/>
      <point x="172" y="886" type="line"/>
      <point x="424" y="886" type="line"/>
      <point x="594" y="886"/>
      <point x="774" y="645"/>
      <point x="774" y="445" type="qcurve" smooth="yes"/>
      <point x="774" y="245"/>
      <point x="594" y="0"/>
      <point x="424" y="0" type="qcurve"/>
    </contour>
  </outline>
</glyph>
<glyph name="be" format="2">
  <advance width="800"/>
  <unicode hex="0431"/>
  <outline>
    <contour>
      <point x="99" y="535" type="qcurve" smooth="yes"/>
      <point x="99" y="526" type="line" smooth="yes"/>
      <point x="99" y="335"/>
      <point x="253" y="122"/>
      <point x="405" y="122" type="qcurve" smooth="yes"/>
      <point x="557" y="122"/>
      <point x="711" y="335"/>
      <point x="711" y="490" type="qcurve" smooth="yes"/>
      <point x="711" y="522" type="line" smooth="yes"/>
      <point x="711" y="677"/>
      <point x="557" y="890"/>
      <point x="405" y="890" type="qcurve" smooth="yes"/>
      <point x="253" y="890"/>
      <point x="99" y="677"/>
    </contour>
    <contour>
      <point x="391" y="1042" type="qcurve" smooth="yes"/>
      <point x="540" y="1042"/>
      <point x="715" y="745"/>
      <point x="715" y="522" type="qcurve" smooth="yes"/>
      <point x="715" y="490" type="line" smooth="yes"/>
      <point x="715" y="261"/>
      <point x="546" y="-30"/>
      <point x="404" y="-30" type="qcurve" smooth="yes"/>
      <point x="257" y="-30"/>
      <point x="95" y="263"/>
      <point x="95" y="525" type="qcurve" smooth="yes"/>
      <point x="95" y="631" type="line" smooth="yes"/>
      <point x="95" y="999"/>
      <point x="241" y="1316"/>
      <point x="415" y="1359" type="qcurve" smooth="yes"/>
      <point x="480" y="1375"/>
      <point x="519" y="1475"/>
      <point x="525" y="1536" type="qcurve"/>
      <point x="689" y="1536" type="line"/>
      <point x="679" y="1431"/>
      <point x="540" y="1384"/>
      <point x="415" y="1355" type="qcurve" smooth="yes"/>
      <point x="241" y="1315"/>
      <point x="103" y="998"/>
      <point x="99" y="687" type="qcurve"/>
      <point x="103" y="686" type="line"/>
      <point x="144" y="906"/>
      <point x="291" y="1042"/>
    </contour>
  </outline>
</glyph>
<glyph name="ve" format="2">
  <advance width="1125"/>
  <unicode hex="0432"/>
  <outline>
    <contour>
      <point x="330" y="0" type="line"/>
      <point x="330" y="1052" type="line"/>
      <point x="486" y="1052" type="line" smooth="yes"/>
      <point x="636" y="1052"/>
      <point x="794" y="912"/>
      <point x="794" y="766" type="qcurve" smooth="yes"/>
      <point x="794" y="682"/>
      <point x="708" y="563"/>
      <point x="632" y="544" type="qcurve"/>
      <point x="632" y="541" type="line"/>
      <point x="725" y="525"/>
      <point x="832" y="402"/>
      <point x="832" y="306" type="qcurve" smooth="yes"/>
      <point x="832" y="161"/>
      <point x="652" y="0"/>
      <point x="503" y="0" type="qcurve" smooth="yes"/>
    </contour>
    <contour>
      <point x="334" y="145" type="line"/>
      <point x="632" y="145" type="line" smooth="yes"/>
      <point x="733" y="145"/>
      <point x="828" y="234"/>
      <point x="828" y="306" type="qcurve" smooth="yes"/>
      <point x="828" y="377"/>
      <point x="734" y="463"/>
      <point x="632" y="463" type="qcurve" smooth="yes"/>
      <point x="332" y="463" type="line"/>
      <point x="332" y="607" type="line"/>
      <point x="602" y="607" type="line" smooth="yes"/>
      <point x="702" y="607"/>
      <point x="790" y="690"/>
      <point x="790" y="766" type="qcurve" smooth="yes"/>
      <point x="790" y="831"/>
      <point x="702" y="907"/>
      <point x="602" y="907" type="qcurve" smooth="yes"/>
      <point x="334" y="907" type="line"/>
    </contour>
  </outline>
</glyph>
<glyph name="zhe" format="2">
  <advance width="1395"/>
  <unicode hex="0436"/>
  <anchor x="788" y="1052" name="top"/>
  <anchor x="1313" y="0" name="cy_descender"/>
  <outline>
    <contour>
      <point x="697" y="0" type="line"/>
      <point x="693" y="0" type="line"/>
      <point x="693" y="1052" type="line"/>
      <point x="697" y="1052" type="line"/>
    </contour>
    <contour>
      <point x="1310" y="0" type="line"/>
      <point x="890" y="589" type="line"/>
      <point x="894" y="590" type="line"/>
      <point x="1315" y="0" type="line"/>
    </contour>
    <contour>
      <point x="695" y="610" type="line"/>
      <point x="786" y="610" type="line"/>
      <point x="1091" y="1052" type="line"/>
      <point x="1295" y="1052" type="line"/>
      <point x="883" y="465" type="line"/>
      <point x="695" y="465" type="line"/>
    </contour>
    <contour>
      <point x="80" y="0" type="line"/>
      <point x="75" y="0" type="line"/>
      <point x="496" y="591" type="line"/>
      <point x="500" y="589" type="line"/>
    </contour>
    <contour>
      <point x="695" y="610" type="line"/>
      <point x="695" y="465" type="line"/>
      <point x="505" y="465" type="line"/>
      <point x="93" y="1052" type="line"/>
      <point x="299" y="1052" type="line"/>
      <point x="604" y="610" type="line"/>
    </contour>
  </outline>
</glyph>
<glyph name="em" format="2">
  <advance width="1273"/>
  <unicode hex="043C"/>
  <outline>
    <contour>
      <point x="148" y="0" type="line"/>
      <point x="148" y="1052" type="line"/>
      <point x="262" y="1052" type="line"/>
      <point x="602" y="223" type="line" smooth="yes"/>
      <point x="626" y="165"/>
      <point x="646" y="121"/>
      <point x="655" y="97" type="qcurve"/>
      <point x="674" y="97" type="line"/>
      <point x="679" y="121"/>
      <point x="695" y="166"/>
      <point x="716" y="222" type="qcurve" smooth="yes"/>
      <point x="1029" y="1052" type="line"/>
      <point x="1125" y="1052" type="line"/>
      <point x="1125" y="0" type="line"/>
      <point x="1121" y="0" type="line"/>
      <point x="1121" y="792" type="line" smooth="yes"/>
      <point x="1121" y="851"/>
      <point x="1121" y="902"/>
      <point x="1121" y="922" type="qcurve"/>
      <point x="1114" y="922" type="line"/>
      <point x="1111" y="902"/>
      <point x="1096" y="852"/>
      <point x="1074" y="795" type="qcurve" smooth="yes"/>
      <point x="770" y="0" type="line"/>
      <point x="690" y="0" type="line"/>
      <point x="364" y="793" type="line" smooth="yes"/>
      <point x="346" y="838"/>
      <point x="323" y="891"/>
      <point x="316" y="911" type="qcurve"/>
      <point x="311" y="911" type="line"/>
      <point x="315" y="891"/>
      <point x="319" y="841"/>
      <point x="319" y="788" type="qcurve" smooth="yes"/>
      <point x="319" y="0" type="line"/>
    </contour>
  </outline>
</glyph>
<glyph name="pe" format="2">
  <advance width="764"/>
  <unicode hex="043F"/>
  <outline>
    <contour>
      <point x="148" y="1052" type="line"/>
      <point x="616" y="1052" type="line"/>
      <point x="616" y="0" type="line"/>
      <point x="612" y="0" type="line"/>
      <point x="612" y="907" type="line"/>
      <point x="152" y="907" type="line"/>
      <point x="152" y="0" type="line"/>
      <point x="148" y="0" type="line"/>
    </contour>
  </outline>
</glyph>
<glyph name="te" format="2">
  <advance width="724"/>
  <unicode hex="0442"/>
  <anchor x="455" y="0" name="cy_descender"/>
  <outline>
    <contour>
      <point x="30" y="907" type="line"/>
      <point x="30" y="1052" type="line"/>
      <point x="694" y="1052" type="line"/>
      <point x="694" y="907" type="line"/>
    </contour>
    <contour>
      <point x="360" y="0" type="line"/>
      <point x="360" y="977" type="line"/>
      <point x="364" y="977" type="line"/>
      <point x="364" y="0" type="line"/>
    </contour>
  </outline>
</glyph>
<glyph name="che" format="2">
  <advance width="731"/>
  <unicode hex="0447"/>
  <guideline x="855" y="515" angle="90" identifier="GGEFes61Q6"/>
  <anchor x="673" y="0" name="cy_descender"/>
  <outline>
    <contour>
      <point x="129" y="773" type="line" smooth="yes"/>
      <point x="129" y="642"/>
      <point x="228" y="542"/>
      <point x="351" y="542" type="qcurve" smooth="yes"/>
      <point x="440" y="542"/>
      <point x="538" y="558"/>
      <point x="581" y="569" type="qcurve"/>
      <point x="581" y="424" type="line"/>
      <point x="552" y="415"/>
      <point x="479" y="396"/>
      <point x="391" y="396" type="qcurve" smooth="yes"/>
      <point x="250" y="396"/>
      <point x="125" y="583"/>
      <point x="125" y="773" type="qcurve" smooth="yes"/>
      <point x="125" y="1052" type="line"/>
      <point x="129" y="1052" type="line"/>
    </contour>
    <contour>
      <point x="583" y="1052" type="line"/>
      <point x="583" y="0" type="line"/>
      <point x="579" y="0" type="line"/>
      <point x="579" y="1052" type="line"/>
    </contour>
  </outline>
</glyph>
<glyph name="ecyr" format="2">
  <advance width="712"/>
  <unicode hex="044D"/>
  <guideline x="889" y="493" angle="90" identifier="9ss4WcbEUf"/>
  <anchor x="331" y="1052" name="top"/>
  <outline>
    <contour>
      <point x="627" y="510" type="line" smooth="yes"/>
      <point x="627" y="260"/>
      <point x="469" y="-30"/>
      <point x="336" y="-30" type="qcurve" smooth="yes"/>
      <point x="206" y="-30"/>
      <point x="69" y="197"/>
      <point x="69" y="337" type="qcurve" smooth="yes"/>
      <point x="69" y="342" type="line"/>
      <point x="73" y="342" type="line"/>
      <point x="73" y="337" type="line" smooth="yes"/>
      <point x="73" y="252"/>
      <point x="196" y="122"/>
      <point x="331" y="122" type="qcurve" smooth="yes"/>
      <point x="471" y="122"/>
      <point x="623" y="337"/>
      <point x="623" y="500" type="qcurve" smooth="yes"/>
      <point x="623" y="564" type="line" smooth="yes"/>
      <point x="623" y="717"/>
      <point x="470" y="930"/>
      <point x="335" y="930" type="qcurve" smooth="yes"/>
      <point x="200" y="930"/>
      <point x="77" y="797"/>
      <point x="77" y="715" type="qcurve" smooth="yes"/>
      <point x="77" y="710" type="line"/>
      <point x="73" y="710" type="line"/>
      <point x="73" y="715" type="line" smooth="yes"/>
      <point x="73" y="855"/>
      <point x="208" y="1082"/>
      <point x="339" y="1082" type="qcurve" smooth="yes"/>
      <point x="470" y="1082"/>
      <point x="627" y="791"/>
      <point x="627" y="542" type="qcurve" smooth="yes"/>
    </contour>
    <contour>
      <point x="624" y="610" type="line"/>
      <point x="624" y="465" type="line"/>
      <point x="182" y="465" type="line"/>
      <point x="182" y="610" type="line"/>
    </contour>
  </outline>
</glyph>
<glyph name="nje" format="2">
  <advance width="1155"/>
  <unicode hex="045A"/>
  <outline>
    <contour>
      <point x="148" y="0" type="line"/>
      <point x="148" y="1052" type="line"/>
      <point x="152" y="1052" type="line"/>
      <point x="152" y="0" type="line"/>
    </contour>
    <contour>
      <point x="150" y="525" type="line"/>
      <point x="150" y="670" type="line"/>
      <point x="620" y="670" type="line"/>
      <point x="620" y="525" type="line"/>
    </contour>
    <contour>
      <point x="619" y="0" type="line"/>
      <point x="619" y="1052" type="line"/>
      <point x="623" y="1052" type="line"/>
      <point x="623" y="145" type="line"/>
      <point x="865" y="145" type="line" smooth="yes"/>
      <point x="990" y="145"/>
      <point x="1091" y="255"/>
      <point x="1091" y="337" type="qcurve" smooth="yes"/>
      <point x="1091" y="418"/>
      <point x="990" y="525"/>
      <point x="865" y="525" type="qcurve" smooth="yes"/>
      <point x="622" y="525" type="line"/>
      <point x="622" y="670" type="line"/>
      <point x="795" y="670" type="line"/>
      <point x="905" y="670"/>
      <point x="1095" y="491"/>
      <point x="1095" y="337" type="qcurve" smooth="yes"/>
      <point x="1095" y="183"/>
      <point x="905" y="0"/>
      <point x="795" y="0" type="qcurve"/>
    </contour>
  </outline>
</glyph>
<glyph name="ustraight" format="2">
  <advance width="760"/>
  <unicode hex="04AF"/>
  <outline>
    <contour>
      <point x="374" y="-416" type="line"/>
      <point x="374" y="0" type="line"/>
      <point x="0" y="1052" type="line"/>
      <point x="4" y="1052" type="line"/>
      <point x="261" y="333" type="line" smooth="yes"/>
      <point x="275" y="293"/>
      <point x="298" y="227"/>
      <point x="305" y="207" type="qcurve"/>
      <point x="313" y="207" type="line"/>
      <point x="316" y="231"/>
      <point x="328" y="293"/>
      <point x="343" y="333" type="qcurve" smooth="yes"/>
      <point x="584" y="1052" type="line"/>
      <point x="760" y="1052" type="line"/>
      <point x="378" y="0" type="line"/>
      <point x="378" y="-416" type="line"/>
    </contour>
  </outline>
</glyph>
<glyph name="cheverticalstroke-cy" format="2">
  <advance width="751"/>
  <unicode hex="04B9"/>
  <outline>
    <contour>
      <point x="449" y="852" type="line"/>
      <point x="449" y="200" type="line"/>
      <point x="284" y="200" type="line"/>
      <point x="284" y="852" type="line"/>
    </contour>
    <contour>
      <point x="129" y="773" type="line" smooth="yes"/>
      <point x="129" y="642"/>
      <point x="228" y="542"/>
      <point x="351" y="542" type="qcurve" smooth="yes"/>
      <point x="440" y="542"/>
      <point x="532" y="557"/>
      <point x="601" y="573" type="qcurve"/>
      <point x="601" y="428" type="line"/>
      <point x="553" y="415"/>
      <point x="462" y="396"/>
      <point x="394" y="396" type="qcurve" smooth="yes"/>
      <point x="252" y="396"/>
      <point x="125" y="583"/>
      <point x="125" y="773" type="qcurve" smooth="yes"/>
      <point x="125" y="1052" type="line"/>
      <point x="129" y="1052" type="line"/>
    </contour>
    <contour>
      <point x="599" y="0" type="line"/>
      <point x="599" y="1052" type="line"/>
      <point x="603" y="1052" type="line"/>
      <point x="603" y="0" type="line"/>
    </contour>
  </outline>
</glyph>
<glyph name="quoteright" format="2">
  <advance width="410"/>
  <unicode hex="2019"/>
  <outline>
    <contour>
      <point x="228" y="1456" type="line"/>
      <point x="228" y="1328" type="line" smooth="yes"/>
      <point x="228" y="1238"/>
      <point x="227" y="1034"/>
      <point x="145" y="966" type="qcurve"/>
      <point x="39" y="1039" type="line"/>
      <point x="94" y="1100"/>
      <point x="225" y="1244"/>
      <point x="224" y="1325" type="qcurve" smooth="yes"/>
      <point x="224" y="1456" type="line"/>
    </contour>
  </outline>
</glyph>
<glyph name="quotedblleft" format="2">
  <advance width="830"/>
  <unicode hex="201C"/>
  <outline>
    <contour>
      <point x="182" y="1073" type="line"/>
      <point x="182" y="1194" type="line" smooth="yes"/>
      <point x="182" y="1284"/>
      <point x="183" y="1488"/>
      <point x="266" y="1556" type="qcurve"/>
      <point x="371" y="1483" type="line"/>
      <point x="318" y="1427"/>
      <point x="185" y="1278"/>
      <point x="186" y="1197" type="qcurve" smooth="yes"/>
      <point x="186" y="1073" type="line"/>
    </contour>
    <contour>
      <point x="602" y="1073" type="line"/>
      <point x="602" y="1194" type="line" smooth="yes"/>
      <point x="602" y="1284"/>
      <point x="603" y="1488"/>
      <point x="686" y="1556" type="qcurve"/>
      <point x="791" y="1483" type="line"/>
      <point x="738" y="1423"/>
      <point x="605" y="1278"/>
      <point x="606" y="1197" type="qcurve" smooth="yes"/>
      <point x="606" y="1073" type="line"/>
    </contour>
  </outline>
</glyph>
<glyph name="quotedblright" format="2">
  <advance width="830"/>
  <unicode hex="201D"/>
  <outline>
    <contour>
      <point x="230" y="1456" type="line"/>
      <point x="230" y="1328" type="line" smooth="yes"/>
      <point x="230" y="1238"/>
      <point x="227" y="1034"/>
      <point x="145" y="966" type="qcurve"/>
      <point x="39" y="1039" type="line"/>
      <point x="91" y="1100"/>
      <point x="222" y="1244"/>
      <point x="222" y="1325" type="qcurve" smooth="yes"/>
      <point x="222" y="1456" type="line"/>
    </contour>
    <contour>
      <point x="650" y="1456" type="line"/>
      <point x="650" y="1328" type="line" smooth="yes"/>
      <point x="650" y="1238"/>
      <point x="647" y="1034"/>
      <point x="565" y="966" type="qcurve"/>
      <point x="459" y="1039" type="line"/>
      <point x="511" y="1100"/>
      <point x="642" y="1244"/>
      <point x="642" y="1325" type="qcurve" smooth="yes"/>
      <point x="642" y="1456" type="line"/>
    </contour>
  </outline>
</glyph>
<glyph name="quotedblbase" format="2">
  <advance width="830"/>
  <unicode hex="201E"/>
  <outline>
    <contour>
      <point x="230" y="220" type="line"/>
      <point x="230" y="92" type="line" smooth="yes"/>
      <point x="230" y="2"/>
      <point x="227" y="-202"/>
      <point x="145" y="-270" type="qcurve"/>
      <point x="39" y="-197" type="line"/>
      <point x="96" y="-134"/>
      <point x="222" y="8"/>
      <point x="222" y="89" type="qcurve" smooth="yes"/>
      <point x="222" y="220" type="line"/>
    </contour>
    <contour>
      <point x="650" y="220" type="line"/>
      <point x="650" y="92" type="line" smooth="yes"/>
      <point x="650" y="2"/>
      <point x="647" y="-202"/>
      <point x="565" y="-270" type="qcurve"/>
      <point x="459" y="-197" type="line"/>
      <point x="516" y="-134"/>
      <point x="642" y="8"/>
      <point x="642" y="89" type="qcurve" smooth="yes"/>
      <point x="642" y="220" type="line"/>
    </contour>
  </outline>
</glyph>
<glyph name="uni20AD" format="2">
  <advance width="858"/>
  <unicode hex="20AD"/>
  <outline>
    <contour>
      <point x="130" y="0" type="line"/>
      <point x="130" y="1456" type="line"/>
      <point x="134" y="1456" type="line"/>
      <point x="134" y="0" type="line"/>
    </contour>
    <contour>
      <point x="860" y="0" type="line"/>
      <point x="482" y="707" type="line"/>
      <point x="485" y="710" type="line"/>
      <point x="865" y="0" type="line"/>
    </contour>
    <contour>
      <point x="132" y="498" type="line"/>
      <point x="132" y="765" type="line"/>
      <point x="652" y="1456" type="line"/>
      <point x="854" y="1456" type="line"/>
    </contour>
    <contour>
      <point x="-9" y="661" type="line"/>
      <point x="-9" y="809" type="line"/>
      <point x="132" y="809" type="line"/>
      <point x="132" y="772" type="line"/>
      <point x="316" y="772" type="line"/>
      <point x="316" y="809" type="line"/>
      <point x="794" y="809" type="line"/>
      <point x="794" y="661" type="line"/>
      <point x="509" y="661" type="line"/>
      <point x="489" y="698" type="line"/>
      <point x="132" y="698" type="line"/>
      <point x="132" y="661" type="line"/>
    </contour>
  </outline>
</glyph>
<glyph name="uni20B5" format="2">
  <advance width="649"/>
  <unicode hex="20B5"/>
  <guideline y="-125" identifier="1Am3eQoiKr"/>
  <outline>
    <contour>
      <point x="283" y="-190" type="line"/>
      <point x="283" y="37" type="line"/>
      <point x="296" y="51" type="line"/>
      <point x="296" y="708" type="line"/>
      <point x="441" y="708" type="line"/>
      <point x="441" y="50" type="line"/>
      <point x="453" y="40" type="line"/>
      <point x="453" y="-190" type="line"/>
    </contour>
    <contour>
      <point x="296" y="708" type="line"/>
      <point x="296" y="1392" type="line"/>
      <point x="286" y="1402" type="line"/>
      <point x="286" y="1582" type="line"/>
      <point x="446" y="1582" type="line"/>
      <point x="446" y="1402" type="line"/>
      <point x="441" y="1389" type="line"/>
      <point x="441" y="708" type="line"/>
    </contour>
    <contour>
      <point x="631" y="436" type="qcurve" smooth="yes"/>
      <point x="631" y="460" type="line"/>
      <point x="635" y="460" type="line"/>
      <point x="635" y="433" type="line" smooth="yes"/>
      <point x="635" y="205"/>
      <point x="499" y="-25"/>
      <point x="374" y="-25" type="qcurve" smooth="yes"/>
      <point x="245" y="-25"/>
      <point x="102" y="207"/>
      <point x="102" y="462" type="qcurve" smooth="yes"/>
      <point x="102" y="1002" type="line" smooth="yes"/>
      <point x="102" y="1246"/>
      <point x="245" y="1485"/>
      <point x="373" y="1485" type="qcurve" smooth="yes"/>
      <point x="500" y="1485"/>
      <point x="623" y="1266"/>
      <point x="634" y="1030" type="qcurve" smooth="yes"/>
      <point x="635" y="1008" type="line"/>
      <point x="626" y="1006" type="line"/>
      <point x="626" y="1030" type="line" smooth="yes"/>
      <point x="626" y="1144"/>
      <point x="518" y="1329"/>
      <point x="373" y="1329" type="qcurve" smooth="yes"/>
      <point x="229" y="1329"/>
      <point x="106" y="1163"/>
      <point x="106" y="1004" type="qcurve" smooth="yes"/>
      <point x="106" y="464" type="line" smooth="yes"/>
      <point x="106" y="298"/>
      <point x="239" y="122"/>
      <point x="389" y="122" type="qcurve" smooth="yes"/>
      <point x="507" y="122"/>
      <point x="631" y="302"/>
    </contour>
  </outline>
</glyph>
<glyph name="manat" format="2">
  <advance width="667"/>
  <unicode hex="20BC"/>
  <outline>
    <contour>
      <point x="603" y="916" type="qcurve" smooth="yes"/>
      <point x="603" y="0" type="line"/>
      <point x="599" y="0" type="line"/>
      <point x="599" y="916" type="line" smooth="yes"/>
      <point x="599" y="1078"/>
      <point x="462" y="1252"/>
      <point x="334" y="1252" type="qcurve" smooth="yes"/>
      <point x="208" y="1252"/>
      <point x="69" y="1078"/>
      <point x="69" y="916" type="qcurve" smooth="yes"/>
      <point x="69" y="0" type="line"/>
      <point x="65" y="0" type="line"/>
      <point x="65" y="916" type="line" smooth="yes"/>
      <point x="65" y="1157"/>
      <point x="205" y="1416"/>
      <point x="334" y="1416" type="qcurve" smooth="yes"/>
      <point x="462" y="1416"/>
      <point x="601" y="1157"/>
    </contour>
    <contour>
      <point x="333" y="0" type="line"/>
      <point x="337" y="0" type="line"/>
      <point x="337" y="1582" type="line"/>
      <point x="333" y="1582" type="line"/>
    </contour>
  </outline>
</glyph>
<glyph name="numero" format="2">
  <advance width="1594"/>
  <unicode hex="2116"/>
  <outline>
    <contour>
      <point x="170" y="0" type="line"/>
      <point x="170" y="1456" type="line"/>
      <point x="279" y="1456" type="line"/>
      <point x="795" y="316" type="line" smooth="yes"/>
      <point x="810" y="283"/>
      <point x="836" y="230"/>
      <point x="851" y="201" type="qcurve"/>
      <point x="861" y="201" type="line"/>
      <point x="861" y="227"/>
      <point x="861" y="306"/>
      <point x="861" y="336" type="qcurve" smooth="yes"/>
      <point x="861" y="1456" type="line"/>
      <point x="865" y="1456" type="line"/>
      <point x="865" y="0" type="line"/>
      <point x="751" y="0" type="line"/>
      <point x="231" y="1128" type="line" smooth="yes"/>
      <point x="216" y="1161"/>
      <point x="193" y="1218"/>
      <point x="188" y="1245" type="qcurve"/>
      <point x="174" y="1245" type="line"/>
      <point x="174" y="1215"/>
      <point x="174" y="1140"/>
      <point x="174" y="1110" type="qcurve" smooth="yes"/>
      <point x="174" y="0" type="line"/>
    </contour>
    <contour>
      <point x="1004" y="992" type="qcurve" smooth="yes"/>
      <point x="1004" y="1019" type="line" smooth="yes"/>
      <point x="1004" y="1219"/>
      <point x="1137" y="1473"/>
      <point x="1246" y="1473" type="qcurve" smooth="yes"/>
      <point x="1355" y="1473"/>
      <point x="1489" y="1219"/>
      <point x="1489" y="1019" type="qcurve" smooth="yes"/>
      <point x="1489" y="992" type="line" smooth="yes"/>
      <point x="1489" y="792"/>
      <point x="1362" y="539"/>
      <point x="1246" y="539" type="qcurve" smooth="yes"/>
      <point x="1131" y="539"/>
      <point x="1004" y="792"/>
    </contour>
    <contour>
      <point x="1008" y="1016" type="qcurve" smooth="yes"/>
      <point x="1008" y="991" type="line" smooth="yes"/>
      <point x="1008" y="864"/>
      <point x="1125" y="699"/>
      <point x="1246" y="699" type="qcurve" smooth="yes"/>
      <point x="1367" y="699"/>
      <point x="1485" y="864"/>
      <point x="1485" y="991" type="qcurve" smooth="yes"/>
      <point x="1485" y="1016" type="line" smooth="yes"/>
      <point x="1485" y="1143"/>
      <point x="1366" y="1308"/>
      <point x="1246" y="1308" type="qcurve" smooth="yes"/>
      <point x="1126" y="1308"/>
      <point x="1008" y="1143"/>
    </contour>
    <contour>
      <point x="1044" y="232" type="line"/>
      <point x="1044" y="414" type="line"/>
      <point x="1449" y="414" type="line"/>
      <point x="1449" y="232" type="line"/>
    </contour>
  </outline>
</glyph>
<glyph name="trademark" format="2">
  <advance width="1522"/>
  <unicode hex="2122"/>
  <outline>
    <contour>
      <point x="24" y="1298" type="line"/>
      <point x="24" y="1456" type="line"/>
      <point x="564" y="1456" type="line"/>
      <point x="564" y="1298" type="line"/>
      <point x="296" y="1298" type="line"/>
      <point x="296" y="700" type="line"/>
      <point x="292" y="700" type="line"/>
      <point x="292" y="1298" type="line"/>
    </contour>
    <contour>
      <point x="682" y="700" type="line"/>
      <point x="682" y="1456" type="line"/>
      <point x="732" y="1456" type="line"/>
      <point x="1026" y="750" type="line"/>
      <point x="1034" y="750" type="line"/>
      <point x="1297" y="1456" type="line"/>
      <point x="1357" y="1456" type="line"/>
      <point x="1357" y="700" type="line"/>
      <point x="1208" y="700" type="line"/>
      <point x="1208" y="1175" type="line"/>
      <point x="1196" y="1175" type="line"/>
      <point x="1020" y="700" type="line"/>
      <point x="914" y="700" type="line"/>
      <point x="698" y="1215" type="line"/>
      <point x="686" y="1215" type="line"/>
      <point x="686" y="700" type="line"/>
    </contour>
  </outline>
</glyph>
<glyph name="arrowleft" format="2">
  <advance width="1723"/>
  <unicode hex="2190"/>
  <outline>
    <contour>
      <point x="1553" y="607" type="line"/>
      <point x="295" y="607" type="line"/>
      <point x="295" y="779" type="line"/>
      <point x="1553" y="779" type="line"/>
    </contour>
    <contour>
      <point x="804" y="249" type="line"/>
      <point x="170" y="690" type="line"/>
      <point x="170" y="696" type="line"/>
      <point x="804" y="1135" type="line"/>
      <point x="807" y="1132" type="line"/>
      <point x="173" y="693" type="line"/>
      <point x="807" y="252" type="line"/>
    </contour>
  </outline>
</glyph>
<glyph name="rightanglebracket" format="2">
  <advance width="727"/>
  <unicode hex="27E9"/>
  <outline>
    <contour>
      <point x="1" y="-219" type="line"/>
      <point x="711" y="604" type="line"/>
      <point x="0" y="1413" type="line"/>
      <point x="113" y="1499" type="line"/>
      <point x="715" y="625" type="line"/>
      <point x="715" y="586" type="line"/>
      <point x="113" y="-304" type="line"/>
    </contour>
  </outline>
</glyph>
<glyph name="Zhe.bgr" format="2">
  <advance width="1935"/>
  <outline>
    <contour>
      <point x="90" y="0" type="line"/>
      <point x="736" y="851" type="line"/>
      <point x="738" y="847" type="line"/>
      <point x="95" y="0" type="line"/>
    </contour>
    <contour>
      <point x="959" y="0" type="line"/>
      <point x="959" y="1456" type="line"/>
      <point x="963" y="1456" type="line"/>
      <point x="963" y="0" type="line"/>
    </contour>
    <contour>
      <point x="1832" y="0" type="line"/>
      <point x="1188" y="847" type="line"/>
      <point x="1191" y="851" type="line"/>
      <point x="1837" y="0" type="line"/>
    </contour>
    <contour>
      <point x="106" y="1456" type="line"/>
      <point x="341" y="1456" type="line"/>
      <point x="961" y="721" type="line"/>
      <point x="961" y="479" type="line"/>
    </contour>
    <contour>
      <point x="1581" y="1456" type="line"/>
      <point x="1813" y="1456" type="line"/>
      <point x="961" y="483" type="line"/>
      <point x="961" y="721" type="line"/>
    </contour>
  </outline>
</glyph>
<glyph name="be.locl" format="2">
  <advance width="790"/>
  <outline>
    <contour>
      <point x="89" y="522" type="qcurve" smooth="yes"/>
      <point x="89" y="490" type="line" smooth="yes"/>
      <point x="89" y="335"/>
      <point x="243" y="122"/>
      <point x="395" y="122" type="qcurve" smooth="yes"/>
      <point x="547" y="122"/>
      <point x="701" y="335"/>
      <point x="701" y="490" type="qcurve" smooth="yes"/>
      <point x="701" y="522" type="line" smooth="yes"/>
      <point x="701" y="670"/>
      <point x="550" y="890"/>
      <point x="395" y="890" type="qcurve" smooth="yes"/>
      <point x="243" y="890"/>
      <point x="89" y="677"/>
    </contour>
    <contour>
      <point x="85" y="490" type="qcurve" smooth="yes"/>
      <point x="85" y="522" type="line" smooth="yes"/>
      <point x="85" y="716"/>
      <point x="188" y="941"/>
      <point x="322" y="969" type="qcurve"/>
      <point x="322" y="973" type="line"/>
      <point x="225" y="1003"/>
      <point x="145" y="1129"/>
      <point x="145" y="1211" type="qcurve"/>
      <point x="145" y="1344"/>
      <point x="251" y="1485"/>
      <point x="339" y="1485" type="qcurve" smooth="yes"/>
      <point x="356" y="1485" type="line" smooth="yes"/>
      <point x="418" y="1485"/>
      <point x="481" y="1503"/>
      <point x="490" y="1536" type="qcurve"/>
      <point x="653" y="1536" type="line"/>
      <point x="641" y="1422"/>
      <point x="485" y="1316"/>
      <point x="368" y="1316" type="qcurve" smooth="yes"/>
      <point x="351" y="1316" type="line" smooth="yes"/>
      <point x="237" y="1316"/>
      <point x="152" y="1265"/>
      <point x="152" y="1211" type="qcurve"/>
      <point x="152" y="1134"/>
      <point x="309" y="1072"/>
      <point x="405" y="1050" type="qcurve" smooth="yes"/>
      <point x="537" y="1020"/>
      <point x="705" y="764"/>
      <point x="705" y="522" type="qcurve" smooth="yes"/>
      <point x="705" y="490" type="line" smooth="yes"/>
      <point x="705" y="261"/>
      <point x="537" y="-30"/>
      <point x="395" y="-30" type="qcurve" smooth="yes"/>
      <point x="253" y="-30"/>
      <point x="85" y="261"/>
    </contour>
  </outline>
</glyph>
<glyph name="cent.rvrn" format="2">
  <advance width="670"/>
  <outline>
    <contour>
      <point x="365" y="282" type="qcurve" smooth="yes"/>
      <point x="480" y="282"/>
      <point x="612" y="391"/>
      <point x="620" y="492" type="qcurve"/>
      <point x="624" y="492" type="line"/>
      <point x="618" y="318"/>
      <point x="481" y="130"/>
      <point x="361" y="130" type="qcurve" smooth="yes"/>
      <point x="219" y="130"/>
      <point x="65" y="410"/>
      <point x="65" y="670" type="qcurve" smooth="yes"/>
      <point x="65" y="712" type="line" smooth="yes"/>
      <point x="65" y="972"/>
      <point x="219" y="1252"/>
      <point x="361" y="1252" type="qcurve" smooth="yes"/>
      <point x="482" y="1252"/>
      <point x="619" y="1049"/>
      <point x="624" y="860" type="qcurve"/>
      <point x="620" y="860" type="line"/>
      <point x="612" y="976"/>
      <point x="480" y="1100"/>
      <point x="365" y="1100" type="qcurve" smooth="yes"/>
      <point x="222" y="1100"/>
      <point x="69" y="899"/>
      <point x="69" y="712" type="qcurve" smooth="yes"/>
      <point x="69" y="670" type="line" smooth="yes"/>
      <point x="69" y="483"/>
      <point x="222" y="282"/>
    </contour>
    <contour>
      <point x="287" y="0" type="line"/>
      <point x="287" y="197" type="line"/>
      <point x="292" y="211" type="line"/>
      <point x="292" y="227" type="line"/>
      <point x="432" y="227" type="line"/>
      <point x="432" y="210" type="line"/>
      <point x="437" y="200" type="line"/>
      <point x="437" y="0" type="line"/>
    </contour>
    <contour>
      <point x="292" y="1164" type="line"/>
      <point x="292" y="1182" type="line"/>
      <point x="287" y="1192" type="line"/>
      <point x="287" y="1402" type="line"/>
      <point x="437" y="1402" type="line"/>
      <point x="437" y="1192" type="line"/>
      <point x="432" y="1179" type="line"/>
      <point x="432" y="1164" type="line"/>
    </contour>
  </outline>
</glyph>
<glyph name="dblgravecomb-stack.case" format="2">
  <anchor x="0" y="1456" name="_top"/>
  <anchor x="0" y="1974" name="top"/>
  <outline>
    <contour>
      <point x="-164" y="1600" type="line"/>
      <point x="-324" y="1925" type="line"/>
      <point x="-320" y="1928" type="line"/>
      <point x="-52" y="1675" type="line"/>
    </contour>
    <contour>
      <point x="136" y="1600" type="line"/>
      <point x="-24" y="1925" type="line"/>
      <point x="-20" y="1928" type="line"/>
      <point x="248" y="1675" type="line"/>
    </contour>
  </outline>
</glyph>
<glyph name="dieresisbelowcomb.case" format="2">
  <anchor x="0" y="0" name="_bottom"/>
  <anchor x="0" y="-298" name="bottom"/>
  <outline>
    <contour>
      <point x="-259" y="-99" type="qcurve" smooth="yes"/>
      <point x="-259" y="-86"/>
      <point x="-244" y="-71"/>
      <point x="-230" y="-71" type="qcurve" smooth="yes"/>
      <point x="-217" y="-71"/>
      <point x="-201" y="-87"/>
      <point x="-201" y="-99" type="qcurve" smooth="yes"/>
      <point x="-201" y="-113"/>
      <point x="-216" y="-128"/>
      <point x="-230" y="-128" type="qcurve" smooth="yes"/>
      <point x="-243" y="-128"/>
      <point x="-259" y="-112"/>
    </contour>
    <contour>
      <point x="201" y="-99" type="qcurve" smooth="yes"/>
      <point x="201" y="-86"/>
      <point x="216" y="-71"/>
      <point x="230" y="-71" type="qcurve" smooth="yes"/>
      <point x="243" y="-71"/>
      <point x="259" y="-87"/>
      <point x="259" y="-99" type="qcurve" smooth="yes"/>
      <point x="259" y="-113"/>
      <point x="244" y="-128"/>
      <point x="230" y="-128" type="qcurve" smooth="yes"/>
      <point x="217" y="-128"/>
      <point x="201" y="-112"/>
    </contour>
  </outline>
</glyph>
<glyph name="dotaccentcomb-stack" format="2">
  <anchor x="0.0" y="1052" name="_top"/>
  <anchor x="0.0" y="1435" name="top"/>
  <outline>
    <contour>
      <point x="-23" y="1235" type="qcurve" smooth="yes"/>
      <point x="-23" y="1245"/>
      <point x="-11" y="1257"/>
      <point x="0" y="1257" type="qcurve" smooth="yes"/>
      <point x="11" y="1257"/>
      <point x="23" y="1245"/>
      <point x="23" y="1235" type="qcurve" smooth="yes"/>
      <point x="23" y="1226"/>
      <point x="11" y="1213"/>
      <point x="0" y="1213" type="qcurve" smooth="yes"/>
      <point x="-11" y="1213"/>
      <point x="-23" y="1226"/>
    </contour>
  </outline>
</glyph>
<glyph name="eight.prop" format="2">
  <advance width="788"/>
  <outline>
    <contour>
      <point x="104" y="391" type="qcurve" smooth="yes"/>
      <point x="104" y="516"/>
      <point x="206" y="701"/>
      <point x="274" y="746" type="qcurve"/>
      <point x="274" y="750" type="line"/>
      <point x="221" y="793"/>
      <point x="146" y="967"/>
      <point x="146" y="1087" type="qcurve" smooth="yes"/>
      <point x="146" y="1267"/>
      <point x="285" y="1486"/>
      <point x="395" y="1486" type="qcurve" smooth="yes"/>
      <point x="505" y="1486"/>
      <point x="642" y="1269"/>
      <point x="642" y="1087" type="qcurve" smooth="yes"/>
      <point x="642" y="967"/>
      <point x="567" y="793"/>
      <point x="515" y="750" type="qcurve"/>
      <point x="515" y="746" type="line"/>
      <point x="583" y="701"/>
      <point x="684" y="516"/>
      <point x="684" y="391" type="qcurve" smooth="yes"/>
      <point x="684" y="188"/>
      <point x="517" y="-30"/>
      <point x="395" y="-30" type="qcurve" smooth="yes"/>
      <point x="272" y="-30"/>
      <point x="104" y="188"/>
    </contour>
    <contour>
      <point x="108" y="391" type="qcurve" smooth="yes"/>
      <point x="108" y="268"/>
      <point x="265" y="128"/>
      <point x="395" y="128" type="qcurve" smooth="yes"/>
      <point x="525" y="128"/>
      <point x="680" y="276"/>
      <point x="680" y="391" type="qcurve" smooth="yes"/>
      <point x="680" y="516"/>
      <point x="525" y="666"/>
      <point x="395" y="666" type="qcurve" smooth="yes"/>
      <point x="265" y="666"/>
      <point x="108" y="516"/>
    </contour>
    <contour>
      <point x="150" y="1077" type="qcurve" smooth="yes"/>
      <point x="150" y="967"/>
      <point x="285" y="824"/>
      <point x="395" y="824" type="qcurve" smooth="yes"/>
      <point x="505" y="824"/>
      <point x="638" y="967"/>
      <point x="638" y="1077" type="qcurve" smooth="yes"/>
      <point x="638" y="1187"/>
      <point x="505" y="1328"/>
      <point x="395" y="1328" type="qcurve" smooth="yes"/>
      <point x="285" y="1328"/>
      <point x="150" y="1187"/>
    </contour>
  </outline>
</glyph>
<glyph name="hard.bgr" format="2">
  <advance width="897"/>
  <outline>
    <contour>
      <point x="320" y="351" type="qcurve" smooth="yes"/>
      <point x="320" y="907" type="line"/>
      <point x="30" y="907" type="line"/>
      <point x="30" y="1052" type="line"/>
      <point x="324" y="1052" type="line"/>
      <point x="324" y="351" type="line" smooth="yes"/>
      <point x="324" y="252"/>
      <point x="436" y="123"/>
      <point x="576" y="123" type="qcurve" smooth="yes"/>
      <point x="718" y="123"/>
      <point x="833" y="252"/>
      <point x="833" y="351" type="qcurve" smooth="yes"/>
      <point x="833" y="447"/>
      <point x="727" y="573"/>
      <point x="596" y="573" type="qcurve" smooth="yes"/>
      <point x="322" y="573" type="line"/>
      <point x="322" y="718" type="line"/>
      <point x="556" y="718" type="line" smooth="yes"/>
      <point x="699" y="718"/>
      <point x="837" y="521"/>
      <point x="837" y="351" type="qcurve" smooth="yes"/>
      <point x="837" y="177"/>
      <point x="719" y="-30"/>
      <point x="576" y="-30" type="qcurve" smooth="yes"/>
      <point x="433" y="-30"/>
      <point x="320" y="177"/>
    </contour>
  </outline>
</glyph>
<glyph name="horncomb.case" format="2">
  <anchor x="0" y="1456" name="_topright"/>
  <anchor x="0" y="1694" name="topright"/>
  <outline>
    <contour>
      <point x="0" y="1456" type="line"/>
      <point x="84" y="1456" type="line" smooth="yes"/>
      <point x="132" y="1456"/>
      <point x="214" y="1490"/>
      <point x="214" y="1540" type="qcurve" smooth="yes"/>
      <point x="214" y="1588"/>
      <point x="193" y="1659"/>
      <point x="181" y="1694" type="qcurve"/>
      <point x="185" y="1694" type="line"/>
      <point x="198" y="1661"/>
      <point x="218" y="1588"/>
      <point x="218" y="1540" type="qcurve" smooth="yes"/>
      <point x="218" y="1413"/>
      <point x="143" y="1324"/>
      <point x="82" y="1324" type="qcurve" smooth="yes"/>
      <point x="56" y="1324"/>
      <point x="16" y="1336"/>
      <point x="1" y="1345" type="qcurve"/>
    </contour>
  </outline>
</glyph>
<glyph name="hungarumlautcomb-stack" format="2">
  <anchor x="0" y="1052" name="_top"/>
  <anchor x="0" y="1543" name="top"/>
  <outline>
    <contour>
      <point x="-256" y="1295" type="line"/>
      <point x="8" y="1488" type="line"/>
      <point x="11" y="1485" type="line"/>
      <point x="-158" y="1218" type="line"/>
    </contour>
    <contour>
      <point x="54" y="1295" type="line"/>
      <point x="318" y="1488" type="line"/>
      <point x="321" y="1485" type="line"/>
      <point x="152" y="1218" type="line"/>
    </contour>
  </outline>
</glyph>
<glyph name="ringcomb-stack.case" format="2">
  <anchor x="0.0" y="1456" name="_top"/>
  <anchor x="0.0" y="1970" name="top"/>
  <outline>
    <contour>
      <point x="-129" y="1787" type="qcurve" smooth="yes"/>
      <point x="-129" y="1849"/>
      <point x="-61" y="1916"/>
      <point x="0" y="1916" type="qcurve" smooth="yes"/>
      <point x="61" y="1916"/>
      <point x="129" y="1849"/>
      <point x="129" y="1787" type="qcurve" smooth="yes"/>
      <point x="129" y="1725"/>
      <point x="60" y="1658"/>
      <point x="0" y="1658" type="qcurve" smooth="yes"/>
      <point x="-60" y="1658"/>
      <point x="-129" y="1725"/>
    </contour>
    <contour>
      <point x="-125" y="1787" type="qcurve" smooth="yes"/>
      <point x="-125" y="1728"/>
      <point x="-58" y="1662"/>
      <point x="0" y="1662" type="qcurve" smooth="yes"/>
      <point x="61" y="1662"/>
      <point x="125" y="1727"/>
      <point x="125" y="1787" type="qcurve" smooth="yes"/>
      <point x="125" y="1847"/>
      <point x="58" y="1912"/>
      <point x="0" y="1912" type="qcurve" smooth="yes"/>
      <point x="-58" y="1912"/>
      <point x="-125" y="1846"/>
    </contour>
  </outline>
</glyph>
<glyph name="sha.bgr" format="2">
  <advance width="1218"/>
  <anchor x="1067" y="0" name="cy_descender"/>
  <outline>
    <contour>
      <point x="1070" y="1052" type="line"/>
      <point x="1070" y="0" type="line"/>
      <point x="1066" y="0" type="line"/>
      <point x="1066" y="295" type="line"/>
      <point x="1066" y="1052" type="line"/>
    </contour>
    <contour>
      <point x="602" y="371" type="qcurve" smooth="yes"/>
      <point x="602" y="1052" type="line"/>
      <point x="606" y="1052" type="line"/>
      <point x="606" y="371" type="line" smooth="yes"/>
      <point x="606" y="245"/>
      <point x="714" y="136"/>
      <point x="813" y="136" type="qcurve" smooth="yes"/>
      <point x="904" y="136"/>
      <point x="1037" y="237"/>
      <point x="1068" y="305" type="qcurve"/>
      <point x="1068" y="126" type="line"/>
      <point x="1036" y="63"/>
      <point x="918" y="-20"/>
      <point x="807" y="-20" type="qcurve" smooth="yes"/>
      <point x="725" y="-20"/>
      <point x="602" y="141"/>
    </contour>
    <contour>
      <point x="639" y="160" type="line"/>
      <point x="606" y="85"/>
      <point x="505" y="-20"/>
      <point x="402" y="-20" type="qcurve" smooth="yes"/>
      <point x="275" y="-20"/>
      <point x="138" y="161"/>
      <point x="138" y="373" type="qcurve" smooth="yes"/>
      <point x="138" y="1052" type="line"/>
      <point x="142" y="1052" type="line"/>
      <point x="142" y="371" type="line" smooth="yes"/>
      <point x="142" y="245"/>
      <point x="250" y="136"/>
      <point x="360" y="136" type="qcurve" smooth="yes"/>
      <point x="471" y="136"/>
      <point x="574" y="258"/>
      <point x="605" y="316" type="qcurve"/>
    </contour>
  </outline>
</glyph>
<glyph name="soft.bgr" format="2">
  <advance width="725"/>
  <outline>
    <contour>
      <point x="148" y="351" type="qcurve" smooth="yes"/>
      <point x="148" y="1052" type="line"/>
      <point x="152" y="1052" type="line"/>
      <point x="152" y="351" type="line" smooth="yes"/>
      <point x="152" y="252"/>
      <point x="264" y="123"/>
      <point x="404" y="123" type="qcurve" smooth="yes"/>
      <point x="546" y="123"/>
      <point x="661" y="252"/>
      <point x="661" y="351" type="qcurve" smooth="yes"/>
      <point x="661" y="447"/>
      <point x="555" y="573"/>
      <point x="424" y="573" type="qcurve" smooth="yes"/>
      <point x="150" y="573" type="line"/>
      <point x="150" y="718" type="line"/>
      <point x="384" y="718" type="line" smooth="yes"/>
      <point x="527" y="718"/>
      <point x="665" y="521"/>
      <point x="665" y="351" type="qcurve" smooth="yes"/>
      <point x="665" y="177"/>
      <point x="547" y="-30"/>
      <point x="404" y="-30" type="qcurve" smooth="yes"/>
      <point x="261" y="-30"/>
      <point x="148" y="177"/>
    </contour>
  </outline>
</glyph>
<glyph name="ze.bgr" format="2">
  <advance width="634"/>
  <outline>
    <contour>
      <point x="25" y="-20" type="qcurve" smooth="yes"/>
      <point x="25" y="-10" type="line"/>
      <point x="29" y="-10" type="line"/>
      <point x="29" y="-20" type="line" smooth="yes"/>
      <point x="29" y="-142"/>
      <point x="175" y="-276"/>
      <point x="295" y="-276" type="qcurve" smooth="yes"/>
      <point x="416" y="-276"/>
      <point x="560" y="-142"/>
      <point x="560" y="0" type="qcurve" smooth="yes"/>
      <point x="560" y="139"/>
      <point x="414" y="282"/>
      <point x="276" y="282" type="qcurve" smooth="yes"/>
      <point x="168" y="282" type="line"/>
      <point x="168" y="436" type="line"/>
      <point x="267" y="436" type="line" smooth="yes"/>
      <point x="380" y="436"/>
      <point x="510" y="573"/>
      <point x="510" y="693" type="qcurve" smooth="yes"/>
      <point x="510" y="822"/>
      <point x="394" y="932"/>
      <point x="295" y="932" type="qcurve" smooth="yes"/>
      <point x="191" y="932"/>
      <point x="69" y="815"/>
      <point x="69" y="700" type="qcurve" smooth="yes"/>
      <point x="69" y="690" type="line"/>
      <point x="65" y="690" type="line"/>
      <point x="65" y="700" type="line" smooth="yes"/>
      <point x="65" y="863"/>
      <point x="195" y="1086"/>
      <point x="300" y="1086" type="qcurve" smooth="yes"/>
      <point x="400" y="1086"/>
      <point x="514" y="880"/>
      <point x="514" y="693" type="qcurve" smooth="yes"/>
      <point x="514" y="600"/>
      <point x="458" y="418"/>
      <point x="392" y="369" type="qcurve"/>
      <point x="392" y="365" type="line"/>
      <point x="464" y="339"/>
      <point x="564" y="159"/>
      <point x="564" y="1" type="qcurve" smooth="yes"/>
      <point x="564" y="-200"/>
      <point x="411" y="-430"/>
      <point x="294" y="-430" type="qcurve" smooth="yes"/>
      <point x="170" y="-430"/>
      <point x="25" y="-200"/>
    </contour>
  </outline>
</glyph>
